<?xml version="1.0" encoding="UTF-8" standalone="no"?>
<svg
   width="31"
   height="17"
   viewBox="0 0 31 17"
   version="1.1"
   id="svg8"
   sodipodi:docname="back.svg"
   inkscape:version="1.1 (ce6663b3b7, 2021-05-25)"
   xmlns:inkscape="http://www.inkscape.org/namespaces/inkscape"
   xmlns:sodipodi="http://sodipodi.sourceforge.net/DTD/sodipodi-0.dtd"
   xmlns="http://www.w3.org/2000/svg"
   xmlns:svg="http://www.w3.org/2000/svg">
  <defs
     id="defs12" />
  <sodipodi:namedview
     id="namedview10"
     pagecolor="#ffffff"
     bordercolor="#999999"
     borderopacity="1"
     inkscape:pageshadow="0"
     inkscape:pageopacity="0"
     inkscape:pagecheckerboard="0"
     showgrid="false"
     inkscape:zoom="31.235294"
     inkscape:cx="15.511299"
     inkscape:cy="8.5"
     inkscape:window-width="1920"
     inkscape:window-height="1054"
     inkscape:window-x="0"
     inkscape:window-y="0"
     inkscape:window-maximized="1"
     inkscape:current-layer="g6" />
  <g
     fill="none"
     fill-rule="evenodd"
     stroke="#000000"
     transform="matrix(-1,0,0,1,30.74485,0.44210258)"
     id="g6">
    <path
       d="M 30,8.0769231 H 0"
       id="path2"
       style="fill:#f2f2f2" />
    <polyline
       points="21.923 0 30 8.077 21.923 16.154"
       id="polyline4" />
    <path
       style="fill:#ffffff;fill-opacity:1;stroke-width:0.0320151"
       d="M 4.2579884,12.725973 0.0640912,8.5319843 4.2657591,4.3303165 8.4674272,0.12864848 8.8041242,0.46419966 9.1408212,0.79975085 5.5309157,4.4097625 1.9210102,8.019774 H 16.319733 30.718456 V 8.5160075 9.0122411 H 16.319733 1.9210102 l 3.6173362,3.6174429 3.6173366,3.617442 -0.3352733,0.336418 c -0.1844004,0.18503 -0.3427546,0.336418 -0.3518984,0.336418 -0.00914,0 -1.9038793,-1.887295 -4.2105229,-4.193989 z"
       id="path4870"
       transform="matrix(-1,0,0,1,30.74485,-0.44210258)" />
  </g>
</svg>
