<svg width="48" height="48" viewBox="0 0 48 48" xmlns="http://www.w3.org/2000/svg">
    <title>
        iconBuild
    </title>
    <path d="M40.792 37.962l-.011-.018c.005.006.008.013.011.018zm-.147.144c-.404.291-.866.5-1.273.793-.548.405-1.036.875-1.572 1.296-.416.314-.831.627-1.215.978-.321.296-.616.612-.932.907a1.165 1.165 0 0 1-.054-.066c-.166-.21-.34-.416-.514-.623-.293-.349-.58-.695-.86-1.05a73.86 73.86 0 0 1-.949-1.264 1.064 1.064 0 0 0-.375-.324 26.562 26.562 0 0 0-.742-.977l-.59-.748c.26-.084.473-.275.678-.447.195-.157.385-.313.57-.48.223-.198.441-.404.656-.61a9.18 9.18 0 0 0-.028.29c-.025.264.028.542.09.797.157.68.7 1.225 1.355 1.448.37.126.776.177 1.165.103a3.88 3.88 0 0 0 .566-.167 5.532 5.532 0 0 0 1.189-.623c.283-.198.531-.448.781-.688.174-.166.343-.353.493-.541.04-.05.07-.108.11-.158l.427.532c.387.495.778.99 1.17 1.481a2.921 2.921 0 0 1-.146.14zm-11.08-3.685c.467-.728.946-1.451 1.426-2.17.453-.683.93-1.352 1.266-2.1a.837.837 0 0 0-.13-1.015.906.906 0 0 0-.617-.246c-.14 0-.28.034-.394.117-.364.253-.725.513-1.02.85a19.56 19.56 0 0 0-.95 1.21c-.51.685-.963 1.411-1.42 2.131-.082-.002-.165-.005-.253.007a2.984 2.984 0 0 1-.422-.01 4.706 4.706 0 0 1-.791-.19 3.79 3.79 0 0 1-.422-.245 2.43 2.43 0 0 1-.202-.212.45.45 0 0 1-.036-.063 3.04 3.04 0 0 1-.073-.3 4.156 4.156 0 0 1 .001-.556l.03-.18c.009-.002.015.001.023 0 .302-.083.485-.259.666-.487-.007.008-.015.02-.023.028.266-.342.53-.687.826-1.005.274-.296.574-.58.873-.85.317-.283.628-.566.939-.851a32.984 32.984 0 0 0 1.65-1.577 1.108 1.108 0 0 0 0-1.545 1.09 1.09 0 0 0-.773-.32c-.316 0-.538.13-.773.32-.597.474-1.188.964-1.763 1.463-.319.28-.643.56-.966.838-.353.308-.689.639-1.008.983-.295.311-.55.667-.81 1.013-.077-.023-.157-.046-.233-.073a3.43 3.43 0 0 1-.409-.233 1.608 1.608 0 0 1-.09-.093 1.689 1.689 0 0 1-.102-.177 3.385 3.385 0 0 1-.152-.528 4.799 4.799 0 0 1 .003-.707c.05-.304.12-.602.225-.893.23-.472.535-.907.846-1.328.596-.741 1.25-1.435 1.844-2.175a.795.795 0 0 0 .603-.068c.38-.216.753-.445 1.153-.63a5.47 5.47 0 0 1 1.04-.272c.286-.036.574-.07.859-.097.36-.035.73-.058 1.092-.029.412.082.81.212 1.2.363.503.233 1.001.478 1.508.707a7.44 7.44 0 0 1 1.326.802c.265.232.523.46.764.714.229.238.44.485.648.74.241.33.471.668.7 1.006.255.377.53.73.784 1.1.505.72.998 1.449 1.377 2.242.184.443.353.904.44 1.375.017.255.009.508-.02.758a3.86 3.86 0 0 1-.161.626c-.214.45-.479.872-.755 1.288-.063.016-.126.016-.187.051a.729.729 0 0 0-.358.715c-.12.15-.238.301-.375.439a9.807 9.807 0 0 1-.686.625 4.1 4.1 0 0 1-.657.4 4.5 4.5 0 0 1-.796.238.735.735 0 0 1-.104.001 2.82 2.82 0 0 1-.265-.068 2.76 2.76 0 0 1-.152-.086l-.05-.048c-.025-.041-.045-.08-.07-.122a2.893 2.893 0 0 1-.052-.197 4.344 4.344 0 0 1 .026-.639 4.05 4.05 0 0 1 .26-.791c.139-.32.285-.64.429-.955.13-.28.253-.568.412-.828.036-.051.07-.104.102-.155a.726.726 0 0 0-.112-.88.73.73 0 0 0-.515-.21c-.17 0-.4.07-.51.21l-.09.118c-.203.237-.43.45-.65.672-.258.262-.518.53-.773.798a14.87 14.87 0 0 1-1.494 1.336l.096-.071c-.04.031-.08.06-.121.09l-.041.035c.008-.008.018-.015.028-.023-.167.128-.336.25-.51.361-.169.104-.341.199-.515.293a.924.924 0 0 0-.765.258c-.018.02-.026.048-.043.068a2.206 2.206 0 0 1-.087-.11c-.24-.325-.48-.653-.719-.98zM19.323 21.165c-.043.061-.083.126-.126.187-.11-.157-.23-.308-.349-.46a11.639 11.639 0 0 0-.683-.801 27.727 27.727 0 0 1-.732-.841c-.215-.258-.412-.53-.622-.793a50.746 50.746 0 0 0-1.568-1.804 142.958 142.958 0 0 1-1.609-1.832l.133-.134c.33-.335.664-.679.998-1.005.084-.083.174-.156.261-.235 1.085 1.352 2.16 2.716 3.266 4.055a92.99 92.99 0 0 0 1.594 1.9c.16.186.328.363.493.542a9.18 9.18 0 0 0-1.056 1.221zm-8.352-6.703c-.49.526-.907 1.109-1.34 1.68-.302.377-.63.728-.916 1.112a.753.753 0 0 0-.346.19c-.14.14-.182.301-.202.497a51.353 51.353 0 0 0-.182 2.47c-.038.706-.058 1.413-.14 2.116-.045.237-.098.46-.18.684-.057.11-.118.212-.19.311a2.219 2.219 0 0 1-.206.207.25.25 0 0 1-.034.02l-.014.003a5.575 5.575 0 0 1-.173-.048 2.928 2.928 0 0 1-.243-.136 2.857 2.857 0 0 1-.155-.16 2.364 2.364 0 0 1-.168-.305 7.853 7.853 0 0 1-.332-1.322 23.155 23.155 0 0 1-.167-1.846c-.027-.65-.052-1.304-.002-1.955a8.2 8.2 0 0 1 .44-1.57c.164-.353.333-.707.483-1.066.095-.224.18-.45.235-.684.053-.223.073-.457.098-.683.075-.699.14-1.396.227-2.09a2.72 2.72 0 0 1 .129-.464 4.08 4.08 0 0 1 .33-.523c.418-.499.903-.917 1.398-1.341.454-.39.915-.781 1.382-1.152.555-.409 1.102-.844 1.723-1.145a2.91 2.91 0 0 1 .561-.146c.085-.01.169-.017.253-.025.336-.028.656-.06.975-.179a2.227 2.227 0 0 0 1.025-.764c.104-.15.19-.298.253-.469.093-.241.13-.486.159-.74.07-.63.025-1.264.091-1.895.035-.23.081-.47.156-.693.044-.004.09-.004.135-.002.035.008.07.02.103.031.285.153.548.336.81.527.597.475 1.103 1.04 1.597 1.62.504.586.971 1.204 1.455 1.808.306.407.604.822.825 1.28.025.064.045.128.06.194.002.015.002.03.003.047l-.001.003c-.03.017-.063.035-.095.051a3.022 3.022 0 0 1-.175.045 2.433 2.433 0 0 1-.189.008 3.014 3.014 0 0 1-.503-.173c-.35-.148-.7-.302-1.053-.44-.352-.138-.703-.287-1.076-.353-.218-.038-.493-.076-.711-.002a2.108 2.108 0 0 0-.295.111 1.43 1.43 0 0 0-.422.412c-.23.358-.372.755-.506 1.152-.072.214-.13.429-.18.646-.052.225-.087.44-.156.657a3.093 3.093 0 0 1-.146.235c-.407.472-.896.859-1.357 1.264-.535.465-1.041.955-1.538 1.457-.506.51-1.025 1.006-1.513 1.533zM41.893 37.73c-.053-.185-.17-.37-.28-.53-.099-.154-.21-.308-.314-.46-.207-.3-.409-.604-.6-.913-.226-.368-.43-.747-.643-1.12l.008-.01c.143-.246.278-.494.412-.747.106-.196.194-.393.28-.596.071-.166.13-.331.182-.51.06-.21.076-.44.104-.664a5.03 5.03 0 0 0-.08-1.738c-.062-.271-.138-.534-.214-.8-.288-1.025-.77-1.995-1.3-2.919-.254-.445-.526-.88-.784-1.322-.3-.512-.61-1.015-.992-1.475a10.99 10.99 0 0 0-1.157-1.215c-.423-.38-.905-.684-1.406-.955-.495-.263-1.048-.425-1.571-.627a8.717 8.717 0 0 0-1.57-.457 5.774 5.774 0 0 0-1.055-.114c-.086 0-.172.003-.258.01-.336.023-.67.054-1.004.092-.405.043-.809.104-1.21.18-.28.054-.544.146-.802.252.056-.137.126-.271.18-.407.229-.604.27-1.31.043-1.92-.137-.366-.356-.679-.614-.97-.162-.19-.392-.333-.602-.465-.22-.142-.47-.233-.714-.323a1.56 1.56 0 0 0-.566-.096c-.253 0-.508.045-.745.091-.274.057-.546.174-.8.283-.256.11-.497.239-.739.381-.482.283-.91.672-1.337 1.036-.022.018-.042.038-.063.056-.16-.192-.318-.384-.477-.572-.51-.614-1.016-1.235-1.521-1.857-1.107-1.37-2.205-2.751-3.304-4.127.111-.107.232-.207.336-.318.326-.344.55-.768.72-1.204.123-.317.136-.68.17-1.023a6.42 6.42 0 0 1 .194-.83c.336.085.67.204.999.307.231.072.461.142.695.21.271.08.548.147.83.154.34.005.673-.136.972-.278a1.6 1.6 0 0 0 .626-.535c.165-.252.195-.501.21-.793.012-.17-.065-.366-.12-.521a3.157 3.157 0 0 0-.155-.353 11.056 11.056 0 0 0-1.056-1.65c-.663-.876-1.322-1.748-2.059-2.564a7.95 7.95 0 0 0-1.235-1.084 5.57 5.57 0 0 0-.74-.475 1.81 1.81 0 0 0-.858-.195l-.067.001a1.284 1.284 0 0 0-.412.09c-.167.064-.29.145-.427.253-.18.142-.278.4-.334.61-.037.151-.053.31-.07.463a6.87 6.87 0 0 0-.048.825c0 .28.037.558.048.843.015.311.01.626-.018.94a1.943 1.943 0 0 1-.071.25 1.091 1.091 0 0 1-.073.12 2.27 2.27 0 0 1-.184.183 2.634 2.634 0 0 1-.256.147c-.116.038-.229.07-.348.093-.22.016-.44.013-.658.021a3.86 3.86 0 0 0-.717.106c-.222.052-.442.16-.652.264a4.767 4.767 0 0 0-.593.339c-.374.246-.746.498-1.097.77-.41.309-.798.64-1.19.973-.39.33-.768.663-1.14 1.008a6.185 6.185 0 0 0-.482.534c-.361.432-.66.91-.79 1.469-.06.274-.071.569-.1.852-.017.218-.036.437-.057.659-.038.476-.07.955-.116 1.435-.106.574-.36 1.11-.576 1.648-.19.482-.303.987-.396 1.498-.094.522-.089 1.041-.08 1.57.008.529.03 1.057.069 1.588.031.513.068 1.033.132 1.545.04.317.105.632.177.943.075.316.192.616.341.895.154.279.388.482.636.667.19.146.432.239.662.292.324.073.629-.012.91-.174.206-.122.378-.316.527-.502.154-.19.291-.388.408-.604.315-.577.376-1.277.43-1.921.04-.545.074-1.091.107-1.636a.824.824 0 0 0 .478-.556 7.2 7.2 0 0 1 .189-.663 4.9 4.9 0 0 1 .238-.403c.242-.28.503-.534.747-.807.288-.326.546-.679.826-1.012.114-.137.241-.263.359-.395a85.702 85.702 0 0 0 1.587 1.8c.533.59 1.064 1.184 1.577 1.79.216.256.43.518.644.778.235.281.502.544.765.804.247.25.497.498.751.737.242.228.494.453.783.6-.02.045-.05.088-.07.133-.294.664-.456 1.365-.588 2.079a7.96 7.96 0 0 0-.12 1.695 18.92 18.92 0 0 0 .398 3.366c.125.573.255 1.144.384 1.715.109.482.223.972.397 1.435a10.968 10.968 0 0 0 .635 1.415l-.31.28c-.232.223-.463.447-.694.674-.42.407-.83.824-1.247 1.228a552.83 552.83 0 0 1-3.163 3.055c-.456.436-.44 1.202 0 1.642.457.457 1.19.44 1.647 0 1.298-1.25 2.6-2.5 3.842-3.81a29.494 29.494 0 0 0 1.55-1.758c.13-.16.256-.318.357-.495.145-.268.218-.652.117-.948A1.668 1.668 0 0 0 21.24 34a1.532 1.532 0 0 1-.14-.219 12.45 12.45 0 0 1-.464-.913 8.919 8.919 0 0 1-.306-.919c-.113-.44-.224-.885-.328-1.327-.194-.798-.38-1.588-.503-2.399a22.257 22.257 0 0 1-.116-1.445 9.13 9.13 0 0 1 .048-1.345c.11-.578.233-1.156.438-1.707.298-.647.709-1.24 1.113-1.82.187-.229.374-.449.574-.666.096-.102.205-.195.31-.291a.709.709 0 0 0 .326-.091.749.749 0 0 0 .35-.54c.383-.354.762-.71 1.157-1.05a7.276 7.276 0 0 1 1.217-.752c.118-.04.235-.071.358-.096.05-.004.1-.004.15 0 .055.011.106.026.16.044.141.072.274.151.405.239.046.043.09.086.134.132.074.106.14.212.198.328.03.083.055.165.075.256a2.31 2.31 0 0 1-.005.322 3.47 3.47 0 0 1-.164.528 10.83 10.83 0 0 1-1.092 1.82c-.487.594-1.007 1.157-1.508 1.742-.505.585-1.007 1.224-1.384 1.908a5.139 5.139 0 0 0-.533 1.516c-.081.43-.114.87-.061 1.303.061.478.198.893.42 1.322.243.47.7.811 1.179 1.016.187.083.375.15.572.206a4.65 4.65 0 0 0-.135.649c-.083.638.014 1.28.344 1.84.129.222.326.425.513.6.152.137.331.254.5.367.271.178.584.3.89.413.17.063.356.105.54.141.164.037.334.06.505.081.296.037.579.009.867-.061.356.497.708.995 1.086 1.475.38.485.761.975 1.149 1.46.557.706 1.128 1.403 1.684 2.11-.243-.015-.484-.04-.724-.055-.353-.028-.706-.054-1.06-.09-.786-.118-1.55-.309-2.327-.464a1.335 1.335 0 0 0-.187-.033c-.081-.008-.16-.022-.242-.032a9.32 9.32 0 0 0-.375.052 2.32 2.32 0 0 0-.376.173c-.128.068-.26.202-.37.305-.165.149-.31.32-.464.482-.303.326-.591.673-.874 1.023a86.234 86.234 0 0 1-1.732 2.027c-.29.331-.59.662-.87 1.006-.275.345-.541.694-.81 1.043-.246.311-.496.614-.744.925a.817.817 0 0 0-.148.115c-.226.228-.32.652-.117.93.001.01.011.021.02.03.12.173.255.3.463.36.215.057.406.012.6-.08.254-.12.418-.368.58-.591.813-1.017 1.743-1.939 2.637-2.885a30.63 30.63 0 0 0 1.42-1.583c.225-.271.454-.538.687-.796.197-.225.399-.453.619-.657.872.156 1.743.324 2.633.387.485.03.97.043 1.457.06.331.016.667.028 1.003.008a2.24 2.24 0 0 0 .612-.134c.232.306.457.62.694.922a11.301 11.301 0 0 1 .478.672c.126.19.265.37.422.533.113.113.36.276.522.303.1.021.198.033.3.045.109-.004.213-.02.314-.052.296-.078.554-.316.77-.523.115-.104.221-.223.327-.34.215-.246.417-.5.636-.744.218-.247.437-.488.667-.725.23-.228.481-.443.72-.67.42-.393.817-.811 1.266-1.172.248-.185.493-.37.732-.56.178-.142.364-.28.523-.44.129-.134.23-.283.306-.45.117-.258.227-.485.142-.773z" fill-rule="evenodd"/>
</svg>
