<svg xmlns="http://www.w3.org/2000/svg" viewBox="0 0 265.12 428.28">
<path fill="#fff" d="M83.75 400.6c3.65.4 7.29.83 10.94 1.18 10.92 1.05 21.88 1.82 32.76 3.19 6.73.84 13.18 2.82 17.72 8.61 3.89 4.96 2.81 11.32-3.17 13.31-3.83 1.27-8.52 1.89-12.34.91-14.17-3.67-28.53-4.7-43.03-4.48-10.23.16-20.45.66-30.67 1.03-2.49.09-5.14-.2-7.45.54-10.38 3.32-20.8 1.31-31.2.63-6.08-.4-10.96-3.31-14.71-7.99-3.36-4.19-3.47-7.92-.29-12.33 1.59-2.21 3.34-4.52 5.54-6.02 15.77-10.76 29.09-24.23 42.86-37.31 7.88-7.48 14.53-15.72 21.06-24.19 5.4-7 9.54-14.63 9.91-23.82.42-10.39 9.2-14.36 15.51-13.52 7.42.98 12.88 10.51 10.73 18.69-.63 2.4-1.54 4.79-2.68 6.99-5.16 9.94-9.18 20.44-16.11 29.51-4.48 5.87-7.79 12.63-12.16 19.89 1.96-.49 3.58-.49 4.74-1.24 11.54-7.41 23.41-14.39 34.39-22.58 14.81-11.05 28.91-23.06 41.33-36.85 15.04-16.7 30.1-33.32 43.08-51.8 20.05-28.55 32.09-60.22 38.82-94.15 4.24-21.37 7.44-42.88 5.87-64.75-1.16-16.18-3.28-32.19-7-48.09-3.22-13.77-8.18-26.68-13.93-39.43-1.01-2.25-1.87-4.66-2.27-7.08-.97-5.79 1.79-9.23 7.61-9.43 4.74-.16 9.13 1.13 11.24 5.87 3.45 7.74 7.05 15.46 9.71 23.49 2.65 8 3.93 16.45 6.33 24.55 4.42 14.95 5.42 30.38 7.25 45.72 2.08 17.55.76 34.97-2.22 52.22-2.72 15.73-5.66 31.5-9.9 46.87-6.57 23.87-15.61 46.76-29.84 67.42-9.21 13.37-18.37 26.75-29.19 38.86-11.29 12.64-22.28 25.65-34.61 37.22-12.69 11.92-25.44 23.95-40.39 33.28-11.01 6.86-21.64 14.32-32.42 21.54-.77.52-1.41 1.23-2.11 1.85.08.55.19 1.12.29 1.69z"/></svg>