<?xml version="1.0" encoding="UTF-8" standalone="no"?>
<svg
   xmlns:dc="http://purl.org/dc/elements/1.1/"
   xmlns:cc="http://creativecommons.org/ns#"
   xmlns:rdf="http://www.w3.org/1999/02/22-rdf-syntax-ns#"
   xmlns:svg="http://www.w3.org/2000/svg"
   xmlns="http://www.w3.org/2000/svg"
   xmlns:xlink="http://www.w3.org/1999/xlink"
   xmlns:sodipodi="http://sodipodi.sourceforge.net/DTD/sodipodi-0.dtd"
   xmlns:inkscape="http://www.inkscape.org/namespaces/inkscape"
   width="40.0px"
   height="40.0px"
   viewBox="0 0 40.0 40.0"
   version="1.1"
   id="SVGRoot"
   sodipodi:docname="favicon.svg"
   inkscape:version="1.0.1 (3bc2e813f5, 2020-09-07)">
  <defs
     id="defs1793">
    <clipPath
       clipPathUnits="userSpaceOnUse"
       id="clipPath875">
      <g
         inkscape:label="Clip"
         id="use877"
         style="fill:#000000;fill-opacity:0.992157;stroke:none;stroke-width:29.6321">
        <g
           id="g2461"
           style="fill:#000000;fill-opacity:0.992157;stroke:none;stroke-width:29.6321">
          <g
             id="g2459"
             clip-path="url(#clipPath3870-3-0)"
             transform="matrix(0.83395819,0,0,1.7248315,926.71376,44.008381)"
             style="fill:#000000;fill-opacity:0.992157;stroke:none;stroke-width:24.7068">
            <g
               inkscape:label="Clip"
               id="g2457"
               style="fill:#000000;fill-opacity:0.992157;stroke:none;stroke-width:24.7068">
              <path
                 style="opacity:1;fill:#000000;fill-opacity:0.992157;fill-rule:evenodd;stroke:none;stroke-width:12.513;stroke-linecap:round;stroke-linejoin:bevel;stroke-opacity:1;paint-order:stroke markers fill"
                 d="m -3809.7491,257.69861 c -139.2573,-0.25239 -175.5955,-0.6379 -175.5611,-1.86254 0.31,-11.04771 3.4756,-65.5354 3.8236,-65.81367 0.2579,-0.20622 55.9376,0.0991 123.7327,0.6784 67.7951,0.57934 176.3169,1.46619 241.1596,1.97077 64.8426,0.50459 118.1559,1.19617 118.474,1.53685 0.318,0.34068 0.817,14.97438 1.1089,32.51935 l 0.5306,31.89993 -68.8319,-0.30542 c -37.8576,-0.16798 -147.8539,-0.44863 -244.4364,-0.62367 z"
                 id="path2455"
                 transform="scale(0.26458333)" />
            </g>
          </g>
        </g>
      </g>
    </clipPath>
    <clipPath
       clipPathUnits="userSpaceOnUse"
       id="clipPath3870-3-0">
      <g
         inkscape:label="Clip"
         id="use3872-6-2"
         style="fill:#000000;fill-opacity:0.992157;stroke:none;stroke-width:24.7068">
        <path
           style="opacity:1;fill:#000000;fill-opacity:0.992157;fill-rule:evenodd;stroke:none;stroke-width:12.513;stroke-linecap:round;stroke-linejoin:bevel;stroke-opacity:1;paint-order:stroke markers fill"
           d="m -3809.7491,257.69861 c -139.2573,-0.25239 -175.5955,-0.6379 -175.5611,-1.86254 0.31,-11.04771 3.4756,-65.5354 3.8236,-65.81367 0.2579,-0.20622 55.9376,0.0991 123.7327,0.6784 67.7951,0.57934 176.3169,1.46619 241.1596,1.97077 64.8426,0.50459 118.1559,1.19617 118.474,1.53685 0.318,0.34068 0.817,14.97438 1.1089,32.51935 l 0.5306,31.89993 -68.8319,-0.30542 c -37.8576,-0.16798 -147.8539,-0.44863 -244.4364,-0.62367 z"
           id="path2465"
           transform="scale(0.26458333)" />
      </g>
    </clipPath>
    <clipPath
       clipPathUnits="userSpaceOnUse"
       id="clipPath3870-3-0-3">
      <g
         inkscape:label="Clip"
         id="use3872-6-2-6"
         style="fill:#8c3f3f;fill-opacity:0.992157;stroke-width:0.811488">
        <path
           style="opacity:1;fill:#8c3f3f;fill-opacity:0.992157;fill-rule:evenodd;stroke:none;stroke-width:0.410984;stroke-linecap:round;stroke-linejoin:bevel;stroke-opacity:1;paint-order:stroke markers fill"
           d="m -3809.7491,257.69861 c -139.2573,-0.25239 -175.5955,-0.6379 -175.5611,-1.86254 0.31,-11.04771 3.4756,-65.5354 3.8236,-65.81367 0.2579,-0.20622 55.9376,0.0991 123.7327,0.6784 67.7951,0.57934 176.3169,1.46619 241.1596,1.97077 64.8426,0.50459 118.1559,1.19617 118.474,1.53685 0.318,0.34068 0.817,14.97438 1.1089,32.51935 l 0.5306,31.89993 -68.8319,-0.30542 c -37.8576,-0.16798 -147.8539,-0.44863 -244.4364,-0.62367 z"
           id="path984"
           transform="scale(0.26458333)" />
      </g>
    </clipPath>
    <clipPath
       clipPathUnits="userSpaceOnUse"
       id="clipPath882">
      <g
         inkscape:label="Clip"
         id="g880"
         style="fill:#8c3f3f;fill-opacity:0.992157;stroke-width:0.811488">
        <path
           style="opacity:1;fill:#8c3f3f;fill-opacity:0.992157;fill-rule:evenodd;stroke:none;stroke-width:0.410984;stroke-linecap:round;stroke-linejoin:bevel;stroke-opacity:1;paint-order:stroke markers fill"
           d="m -3809.7491,257.69861 c -139.2573,-0.25239 -175.5955,-0.6379 -175.5611,-1.86254 0.31,-11.04771 3.4756,-65.5354 3.8236,-65.81367 0.2579,-0.20622 55.9376,0.0991 123.7327,0.6784 67.7951,0.57934 176.3169,1.46619 241.1596,1.97077 64.8426,0.50459 118.1559,1.19617 118.474,1.53685 0.318,0.34068 0.817,14.97438 1.1089,32.51935 l 0.5306,31.89993 -68.8319,-0.30542 c -37.8576,-0.16798 -147.8539,-0.44863 -244.4364,-0.62367 z"
           id="path878"
           transform="scale(0.26458333)" />
      </g>
    </clipPath>
    <clipPath
       clipPathUnits="userSpaceOnUse"
       id="clipPath2627">
      <g
         inkscape:label="Clip"
         id="use2629"
         style="fill:#fffdff;fill-opacity:0.992157;stroke:none;stroke-opacity:1">
        <path
           style="mix-blend-mode:exclusion;fill:#fffdff;fill-opacity:0.992157;fill-rule:nonzero;stroke:none;stroke-width:0.238151;stroke-linecap:round;stroke-linejoin:bevel;stroke-opacity:1;paint-order:stroke markers fill"
           d="m -38.508491,12.094807 c -0.19085,-0.653946 0,0 -0.364419,-1.112215 l -8.340279,-27.706712 1.144427,-2.300971 c 1.186233,-2.301816 0.915375,-2.225019 1.332742,-2.29581 0.344908,-0.0029 0.471053,0.0025 0.619292,0 l 4.905917,16.173256 c 2.62617,8.895377 5.071606,17.131012 5.184185,17.494437 h 0.449277 -3.089134 c -1.985219,0 -1.794313,-0.131185 -1.842008,-0.251964 z"
           id="use964"
           sodipodi:nodetypes="cccccccccscc" />
      </g>
    </clipPath>
    <clipPath
       clipPathUnits="userSpaceOnUse"
       id="clipPath2636">
      <g
         inkscape:label="Clip"
         id="use2638"
         style="fill:#940505;fill-opacity:0.992157;stroke-width:1.13372">
        <g
           id="use2649"
           clip-path="url(#clipPath3870-3-0)"
           transform="matrix(0.10228822,0,0,0.2160741,53.106126,-19.732528)"
           style="fill:#940505;fill-opacity:0.992157;fill-rule:nonzero;stroke-width:11.9546">
          <g
             inkscape:label="Clip"
             id="g2665"
             style="fill:#940505;fill-opacity:0.992157;stroke-width:11.9546">
            <path
               style="opacity:1;fill:#940505;fill-opacity:0.992157;fill-rule:evenodd;stroke:none;stroke-width:6.05449;stroke-linecap:round;stroke-linejoin:bevel;stroke-opacity:1;paint-order:stroke markers fill"
               d="m -3809.7491,257.69861 c -139.2573,-0.25239 -175.5955,-0.6379 -175.5611,-1.86254 0.31,-11.04771 3.4756,-65.5354 3.8236,-65.81367 0.2579,-0.20622 55.9376,0.0991 123.7327,0.6784 67.7951,0.57934 176.3169,1.46619 241.1596,1.97077 64.8426,0.50459 118.1559,1.19617 118.474,1.53685 0.318,0.34068 0.817,14.97438 1.1089,32.51935 l 0.5306,31.89993 -68.8319,-0.30542 c -37.8576,-0.16798 -147.8539,-0.44863 -244.4364,-0.62367 z"
               id="path2663"
               transform="scale(0.26458333)" />
          </g>
        </g>
      </g>
    </clipPath>
    <clipPath
       clipPathUnits="userSpaceOnUse"
       id="clipPath2645">
      <g
         inkscape:label="Clip"
         id="use2647"
         style="fill:#940505;fill-opacity:0.992157">
        <path
           style="fill:#fffdff;fill-opacity:0.992157;fill-rule:evenodd;stroke:none;stroke-width:0.238151;stroke-linecap:round;stroke-linejoin:bevel;stroke-opacity:1;paint-order:stroke markers fill"
           d="m -57.405133,3.608902 c -0.674708,-0.319822 -0.80845,-0.347171 -1.597749,-0.326758 -0.707548,0.01823 -0.867677,-0.0062 -0.896535,-0.13709 -0.03949,-0.179164 1.206277,-2.919672 5.624261,-12.372597 1.671273,-3.575934 3.665235,-7.853979 4.43103,-9.506768 l 1.392352,-3.005075 2.339563,0.06892 c 1.286765,0.03792 2.357566,0.08307 2.37957,0.100366 0.08465,0.06653 -11.995094,25.302299 -12.168665,25.421535 -0.291599,0.200333 -0.712902,0.132381 -1.503827,-0.242537 z"
           id="use2653" />
      </g>
    </clipPath>
    <clipPath
       clipPathUnits="userSpaceOnUse"
       id="clipPath1495">
      <use
         x="0"
         y="0"
         xlink:href="#g1491"
         id="use1497"
         width="100%"
         height="100%" />
    </clipPath>
  </defs>
  <sodipodi:namedview
     id="base"
     pagecolor="#ffffff"
     bordercolor="#666666"
     borderopacity="1.0"
     inkscape:pageopacity="0.0"
     inkscape:pageshadow="2"
     inkscape:zoom="11.2"
     inkscape:cx="15.593078"
     inkscape:cy="22.347856"
     inkscape:document-units="px"
     inkscape:current-layer="layer1"
     inkscape:document-rotation="0"
     showgrid="true"
     inkscape:window-width="1366"
     inkscape:window-height="720"
     inkscape:window-x="1920"
     inkscape:window-y="22"
     inkscape:window-maximized="1"
     showguides="true"
     inkscape:guide-bbox="true">
    <inkscape:grid
       type="xygrid"
       id="grid2363" />
  </sodipodi:namedview>
  <metadata
     id="metadata1796">
    <rdf:RDF>
      <cc:Work
         rdf:about="">
        <dc:format>image/svg+xml</dc:format>
        <dc:type
           rdf:resource="http://purl.org/dc/dcmitype/StillImage" />
        <dc:title />
      </cc:Work>
    </rdf:RDF>
  </metadata>
  <g
     inkscape:label="Layer 1"
     inkscape:groupmode="layer"
     id="layer1">
    <g
       id="g962">
      <rect
         style="fill:#050505;fill-opacity:0.992157;fill-rule:evenodd;stroke-width:0.506458;stroke-linecap:round;stroke-linejoin:bevel;stroke-miterlimit:4;stroke-dasharray:none;paint-order:stroke fill markers"
         id="rect960"
         width="40"
         height="40"
         x="7.1054274e-15"
         y="0" />
      <g
         id="g946">
        <g
           id="g2679"
           clip-path="url(#clipPath3870-3-0)"
           transform="matrix(0.08652589,0,0,0.2160741,106.21776,5.2674723)"
           style="fill:#fffdff;fill-opacity:0.99215698;fill-rule:nonzero;stroke-width:12.9979">
          <g
             inkscape:label="Clip"
             id="g2677"
             style="fill:#fffdff;fill-opacity:0.99215698;stroke-width:12.9979" />
        </g>
      </g>
    </g>
    <g
       id="g1493"
       clip-path="url(#clipPath1495)"
       style="fill:#0000ff;fill-opacity:1;stroke:none;stroke-width:42.221;stroke-opacity:1"
       transform="matrix(0.08282427,0,0,0.09675177,-45.211176,-9.880333)">
      <g
         inkscape:label="Clip"
         id="g1491"
         style="fill:#0000ff;fill-opacity:1;stroke:none;stroke-width:42.221;stroke-opacity:1">
        <path
           style="fill:#0000ff;fill-opacity:1;stroke:none;stroke-width:5.65762;stroke-linecap:round;stroke-linejoin:bevel;stroke-opacity:1;paint-order:stroke fill markers"
           d="m -19.91393,470.85323 c -9.95562,-2.24362 -24.79249,3.19785 -25.00312,2.98804 -0.21064,-0.2098 -13.70405,-40.02919 -29.98537,-88.48754 -16.28131,-48.45831 -29.73694,-88.23151 -29.90139,-88.38485 -0.16446,-0.15335 -9.38322,-8.23036 -51.23795,-4.89815 l -58.02183,4.61934 -23.30404,40.85462 c -20.50522,35.94798 -23.47132,40.86999 -24.6967,40.9823 -0.76593,0.0702 -6.31537,-6.23678 -21.26573,-7.04857 l -21.95981,-1.19236 -0.18625,-1.46484 c -0.13697,-1.07729 17.88245,-35.67774 68.11379,-130.79035 37.565,-71.12904 68.35509,-129.58846 68.49223,-129.51948 3.37106,1.6957 56.11597,1.5962 56.4779,1.96845 0.34725,0.35715 119.7030798,363.78718 119.7030798,364.48736 0,0.42755 -2.95887,1.35461 -27.2248098,-4.11397 z m -98.27394,-213.69687 c 0,-0.90931 -27.38108,-83.09127 -27.82047,-83.50075 -0.15303,-0.14262 -0.50566,-0.035 -0.78364,0.23913 -0.81812,0.8069 -44.74674,81.67198 -44.74674,82.37109 0,0.47024 2.9634,0.70818 11.3178,0.71093 17.87502,0.006 45.22912,0.50639 57.5919,0.89289 3.64697,0.11401 4.44115,-0.0436 4.44115,-0.71329 z"
           id="path1488"
           sodipodi:nodetypes="ssssscssscsssssssssssss" />
      </g>
    </g>
    <path
       style="opacity:1;mix-blend-mode:normal;fill:#ffffff;fill-opacity:1;fill-rule:nonzero;stroke:#000000;stroke-width:1px;stroke-linecap:butt;stroke-linejoin:miter;stroke-opacity:1"
       d="m 2.413761,36.067597 v 0"
       id="path841"
       inkscape:connector-type="polyline"
       inkscape:connector-curvature="0" />
    <path
       style="opacity:1;mix-blend-mode:exclusion;fill:#ffffff;fill-opacity:1;fill-rule:nonzero;stroke-width:0.506457;stroke-linecap:round;stroke-linejoin:bevel;paint-order:stroke markers fill"
       d="M 4.9999999,34.488616 C 4.9988665,34.356709 8.5495908,27.208097 12.890498,18.602965 L 20.783053,2.9572404 h 2.075466 2.075462 L 18.606738,15.489644 c -3.479979,6.892812 -7.081955,14.028364 -8.004383,15.856773 l -1.6771477,3.3244 -1.9615762,0.02893 -1.9615781,0.02894 z"
       id="path2110" />
    <path
       style="opacity:1;mix-blend-mode:exclusion;fill:#ffffff;fill-opacity:1;fill-rule:nonzero;stroke-width:0.506457;stroke-linecap:round;stroke-linejoin:bevel;paint-order:stroke markers fill"
       d="m 28.076253,37.245735 c -0.02868,-0.07246 -1.485454,-5.557527 -3.237551,-12.188834 L 21.653073,13 22.638486,11.042046 C 23.609885,9.111932 23.62868,9.084541 23.960007,9.115434 l 0.336106,0.03133 3.910231,13.561358 c 2.150624,7.458764 3.985662,13.810705 4.077857,14.115444 l 0.167631,0.554062 h -2.161825 c -1.625739,0 -2.1747,-0.03265 -2.213746,-0.131906 z"
       id="path2112" />
    <text
       xml:space="preserve"
       style="font-style:normal;font-variant:normal;font-weight:bold;font-stretch:normal;font-size:5.33333px;line-height:1.25;font-family:TSCu_Comic;-inkscape-font-specification:'TSCu_Comic Bold';white-space:pre;inline-size:8.40156;mix-blend-mode:exclusion;fill:#ffffff;fill-opacity:1;stroke-width:4.69161"
       x="21.003498"
       y="7.4272451"
       id="text6768"
       transform="matrix(0.22007428,0,0,0.20643535,17.951646,7.3781898)"><tspan
         x="21.003498"
         y="7.4272451"><tspan
           style="font-style:normal;font-variant:normal;font-weight:bold;font-stretch:normal;font-size:5.33333px;font-family:TSCu_Comic;-inkscape-font-specification:'TSCu_Comic Bold';fill:#ffffff;fill-opacity:1;stroke-width:4.69161">AM</tspan></tspan></text>
  </g>
</svg>
