<?xml version="1.0" encoding="UTF-8" standalone="no"?>
<svg
   xmlns:dc="http://purl.org/dc/elements/1.1/"
   xmlns:cc="http://creativecommons.org/ns#"
   xmlns:rdf="http://www.w3.org/1999/02/22-rdf-syntax-ns#"
   xmlns:svg="http://www.w3.org/2000/svg"
   xmlns="http://www.w3.org/2000/svg"
   xmlns:xlink="http://www.w3.org/1999/xlink"
   xmlns:sodipodi="http://sodipodi.sourceforge.net/DTD/sodipodi-0.dtd"
   xmlns:inkscape="http://www.inkscape.org/namespaces/inkscape"
   width="210mm"
   height="297mm"
   viewBox="0 0 210 297"
   version="1.1"
   id="svg879"
   inkscape:version="1.0.1 (3bc2e813f5, 2020-09-07)"
   sodipodi:docname="icon.svg">
  <defs
     id="defs873">
    <clipPath
       clipPathUnits="userSpaceOnUse"
       id="clipPath875">
      <g
         inkscape:label="Clip"
         id="use877"
         style="fill:#000000;fill-opacity:0.992157;stroke:none;stroke-width:0.727769">
        <g
           id="g1505"
           style="fill:#000000;fill-opacity:0.992157;stroke:none;stroke-width:0.727769">
          <g
             id="g1503"
             clip-path="url(#clipPath3870-3-0)"
             transform="matrix(0.83395819,0,0,1.7248315,926.71376,44.008381)"
             style="fill:#000000;fill-opacity:0.992157;stroke:none;stroke-width:0.606804">
            <g
               inkscape:label="Clip"
               id="g1501"
               style="fill:#000000;fill-opacity:0.992157;stroke:none;stroke-width:0.606804">
              <path
                 style="opacity:1;fill:#000000;fill-opacity:0.992157;fill-rule:evenodd;stroke:none;stroke-width:0.307321;stroke-linecap:round;stroke-linejoin:bevel;stroke-opacity:1;paint-order:stroke markers fill"
                 d="m -3809.7491,257.69861 c -139.2573,-0.25239 -175.5955,-0.6379 -175.5611,-1.86254 0.31,-11.04771 3.4756,-65.5354 3.8236,-65.81367 0.2579,-0.20622 55.9376,0.0991 123.7327,0.6784 67.7951,0.57934 176.3169,1.46619 241.1596,1.97077 64.8426,0.50459 118.1559,1.19617 118.474,1.53685 0.318,0.34068 0.817,14.97438 1.1089,32.51935 l 0.5306,31.89993 -68.8319,-0.30542 c -37.8576,-0.16798 -147.8539,-0.44863 -244.4364,-0.62367 z"
                 id="path1499"
                 transform="scale(0.26458333)" />
            </g>
          </g>
        </g>
      </g>
    </clipPath>
    <clipPath
       clipPathUnits="userSpaceOnUse"
       id="clipPath3870-3-0">
      <g
         inkscape:label="Clip"
         id="use3872-6-2"
         style="fill:#000000;fill-opacity:0.992157;stroke:none;stroke-width:0.606804">
        <path
           style="opacity:1;fill:#000000;fill-opacity:0.992157;fill-rule:evenodd;stroke:none;stroke-width:0.307321;stroke-linecap:round;stroke-linejoin:bevel;stroke-opacity:1;paint-order:stroke markers fill"
           d="m -3809.7491,257.69861 c -139.2573,-0.25239 -175.5955,-0.6379 -175.5611,-1.86254 0.31,-11.04771 3.4756,-65.5354 3.8236,-65.81367 0.2579,-0.20622 55.9376,0.0991 123.7327,0.6784 67.7951,0.57934 176.3169,1.46619 241.1596,1.97077 64.8426,0.50459 118.1559,1.19617 118.474,1.53685 0.318,0.34068 0.817,14.97438 1.1089,32.51935 l 0.5306,31.89993 -68.8319,-0.30542 c -37.8576,-0.16798 -147.8539,-0.44863 -244.4364,-0.62367 z"
           id="path1509"
           transform="scale(0.26458333)" />
      </g>
    </clipPath>
    <clipPath
       clipPathUnits="userSpaceOnUse"
       id="clipPath1495">
      <use
         x="0"
         y="0"
         xlink:href="#g1491"
         id="use1497" />
    </clipPath>
  </defs>
  <sodipodi:namedview
     id="base"
     pagecolor="#ffffff"
     bordercolor="#666666"
     borderopacity="1.0"
     inkscape:pageopacity="0.0"
     inkscape:pageshadow="2"
     inkscape:zoom="0.35"
     inkscape:cx="305.66406"
     inkscape:cy="395.60553"
     inkscape:document-units="mm"
     inkscape:current-layer="layer1"
     inkscape:document-rotation="0"
     showgrid="false"
     inkscape:window-width="1920"
     inkscape:window-height="1054"
     inkscape:window-x="0"
     inkscape:window-y="0"
     inkscape:window-maximized="1" />
  <metadata
     id="metadata876">
    <rdf:RDF>
      <cc:Work
         rdf:about="">
        <dc:format>image/svg+xml</dc:format>
        <dc:type
           rdf:resource="http://purl.org/dc/dcmitype/StillImage" />
        <dc:title></dc:title>
      </cc:Work>
    </rdf:RDF>
  </metadata>
  <g
     inkscape:label="Layer 1"
     inkscape:groupmode="layer"
     id="layer1">
    <path
       style="fill:none;stroke:#000000;stroke-width:0.264583px;stroke-linecap:butt;stroke-linejoin:miter;stroke-opacity:1"
       d="M -355.80962,72.218226 -485.02821,334.73614"
       id="path1470" />
    <path
       style="fill:none;stroke:#000000;stroke-width:0.264583px;stroke-linecap:butt;stroke-linejoin:miter;stroke-opacity:1"
       d="m -485.02821,334.73614 43.7818,9.35612"
       id="path1472" />
    <path
       style="fill:none;stroke:#000000;stroke-width:0.264583px;stroke-linecap:butt;stroke-linejoin:miter;stroke-opacity:1"
       d="m -441.24641,344.09226 44.09651,-83.00031"
       id="path1474" />
    <path
       style="fill:none;stroke:#000000;stroke-width:0.264583px;stroke-linecap:butt;stroke-linejoin:miter;stroke-opacity:1"
       d="m -397.1499,261.09195 101.17064,0.4322"
       id="path1476" />
    <path
       style="fill:none;stroke:#000000;stroke-width:0.264583px;stroke-linecap:butt;stroke-linejoin:miter;stroke-opacity:1"
       d="m -295.97926,261.52415 55.64822,177.65452"
       id="path1478" />
    <path
       style="fill:none;stroke:#000000;stroke-width:0.264583px;stroke-linecap:butt;stroke-linejoin:miter;stroke-opacity:1"
       d="m -240.33104,439.17867 49.98935,1.2727 -112.08979,-366.438129 -53.37814,-1.795015"
       id="path1480" />
    <path
       style="fill:none;stroke:#000000;stroke-width:0.264583px;stroke-linecap:butt;stroke-linejoin:miter;stroke-opacity:1"
       d="m -376.56632,220.79549 42.09965,-82.83379"
       id="path1482" />
    <path
       style="fill:none;stroke:#000000;stroke-width:0.264583px;stroke-linecap:butt;stroke-linejoin:miter;stroke-opacity:1"
       d="m -334.46667,137.9617 26.1143,83.89715"
       id="path1484" />
    <path
       style="fill:none;stroke:#000000;stroke-width:0.264583px;stroke-linecap:butt;stroke-linejoin:miter;stroke-opacity:1"
       d="m -308.35237,221.85885 -68.21395,-1.06336"
       id="path1486" />
    <g
       id="g1493"
       clip-path="url(#clipPath1495)"
       style="fill:#000600;fill-opacity:0.981296;stroke:none;stroke-width:1.43876;stroke-opacity:1"
       transform="matrix(0.68013836,0,0,0.71027288,334.53344,-38.136533)">
      <g
         inkscape:label="Clip"
         id="g1491"
         style="fill:#000600;fill-opacity:0.981296;stroke:none;stroke-width:1.43876;stroke-opacity:1">
        <path
           style="fill:#000600;fill-opacity:0.981296;stroke:none;stroke-width:0.728669;stroke-linecap:round;stroke-linejoin:bevel;stroke-opacity:1;paint-order:stroke fill markers"
           d="m -818.52164,1645.8201 c -35.09861,-8.4876 -87.40611,12.0975 -88.1487,11.3038 -0.7426,-0.7937 -48.31374,-151.4307 -105.71366,-334.7489 -57.3999,-183.3181 -104.8378,-333.78037 -105.4176,-334.36046 -0.5798,-0.58011 -33.0806,-31.13551 -180.6398,-18.52972 l -204.5564,17.47498 -82.1586,154.5533 c -72.2913,135.9914 -82.7483,154.6114 -87.0684,155.0363 -2.7003,0.2656 -22.2649,-23.5938 -74.9725,-26.6648 l -77.4195,-4.5107 -0.6566,-5.5415 c -0.4829,-4.0754 63.0447,-134.9691 240.1357,-494.78071 132.4357,-269.0816 240.9864,-490.23394 241.4699,-489.97299 11.8847,6.41486 197.8373,6.03846 199.1133,7.44668 1.2242,1.35108 422.01414,1376.20912 422.01414,1378.85792 0,1.6174 -10.43152,5.1245 -95.98128,-15.5632 z M -1164.9872,837.40353 c 0,-3.43992 -96.5322,-314.33477 -98.0813,-315.88384 -0.5395,-0.53954 -1.7827,-0.13253 -2.7627,0.90464 -2.8843,3.05249 -157.755,308.96558 -157.755,311.61034 0,1.7789 10.4475,2.67905 39.901,2.68943 63.0185,0.0222 159.4556,1.91569 203.0407,3.37781 12.8574,0.43132 15.6573,-0.16506 15.6573,-2.69838 z"
           id="path1488"
           transform="scale(0.26458333)"
           sodipodi:nodetypes="ssssscssscsssssssssssss" />
      </g>
    </g>
  </g>
</svg>
