<?xml version="1.0" standalone="no"?>
<!DOCTYPE svg PUBLIC "-//W3C//DTD SVG 1.1//EN" "http://www.w3.org/Graphics/SVG/1.1/DTD/svg11.dtd" >
<svg xmlns="http://www.w3.org/2000/svg" xmlns:xlink="http://www.w3.org/1999/xlink" version="1.1">
<metadata>
Created by FontForge 20170731 at Thu Jul 12 04:16:46 2018
 By Aleksey,,,
Copyright (c) 2018 by Kurniadi Saputra. All rights reserved.
</metadata>
<defs>
<font id="Agustina" horiz-adv-x="422" >
  <font-face 
    font-family="Agustina"
    font-weight="400"
    font-stretch="normal"
    units-per-em="1000"
    panose-1="2 0 5 6 0 0 0 2 0 4"
    ascent="800"
    descent="-200"
    x-height="436"
    cap-height="958.5"
    bbox="-32.0444 -538.545 950.778 1015.74"
    underline-thickness="50"
    underline-position="-150"
    unicode-range="U+0020-007E"
  />
<missing-glyph horiz-adv-x="254" 
 />
    <glyph glyph-name=".notdef" horiz-adv-x="254" 
 />
    <glyph glyph-name=".null" horiz-adv-x="0" 
 />
    <glyph glyph-name="nonmarkingreturn" horiz-adv-x="333" 
 />
    <glyph glyph-name="space" unicode=" " horiz-adv-x="254" 
 />
    <glyph glyph-name="exclam" unicode="!" horiz-adv-x="265" 
d="M127 66q-10 -29 -23 -39.5t-24.5 -7.5t-19.5 17t-8 34q-1 24 2.5 65t10 90.5t14 103t15.5 104.5t15 94.5t11 71.5q11 16 25 23t27.5 5.5t24 -11t15.5 -27.5q-1 -18 -6 -59t-13 -94t-18 -111.5t-19 -111t-17 -92.5t-12 -55zM7 -127q5 3 20 6.5t33 3.5q17 -1 31.5 -5
t17.5 -9q6 -9 2.5 -22t-12.5 -25.5t-22.5 -21t-28.5 -7.5q-18 1 -28.5 11.5t-15.5 24t-4 26t7 18.5z" />
    <glyph glyph-name="quotedbl" unicode="&#x22;" horiz-adv-x="294" 
d="M43 671q34 3 50.5 -13t19.5 -41t-5.5 -53t-24.5 -50q-8 -10 -19.5 -14t-16.5 4q20 33 19 60.5t-17 32.5q-23 0 -35.5 11t-13.5 24.5t9.5 25t33.5 13.5zM184 671q34 3 50.5 -13t19.5 -41t-5.5 -53t-24.5 -50q-8 -10 -19.5 -14t-16.5 4q20 33 19 60.5t-17 32.5
q-23 0 -35.5 11t-13.5 24.5t9.5 25t33.5 13.5z" />
    <glyph glyph-name="numbersign" unicode="#" horiz-adv-x="380" 
d="M113 -175q0 -12 -8 -16t-17 -0.5t-16.5 15t-7.5 31.5l6 160q-11 0 -23 -0.5t-25 -0.5q-9 2 -14.5 19t-7 36.5t0.5 35.5t8 16h64q2 30 2.5 58.5t1.5 55.5q-13 0 -26.5 -0.5t-28.5 -0.5q-9 2 -14.5 19t-7 36.5t0.5 35.5t8 16h71q1 39 1.5 75.5t2.5 73.5q1 21 10 29.5
t19.5 5.5t18 -17t5.5 -37q-2 -29 -3 -62t-2 -68h36.5t35.5 1l5 148q1 21 10 29.5t19.5 5.5t18 -17t5.5 -37l-6 -128q15 0 29 0.5t27 1.5q7 1 12.5 -6.5t8.5 -20t4.5 -27.5t0 -28t-5.5 -22.5t-11 -10.5l-69 3l-4 -111l64 3q7 1 12.5 -6.5t8.5 -20t4.5 -27.5t0 -28t-5.5 -22.5
t-11 -10.5l-77 3l-6 -188q0 -12 -8 -16t-17 -0.5t-17 15t-8 31.5l7 159q-17 1 -36 1h-39q-2 -48 -3.5 -95.5t-3.5 -94.5zM198 122l4 112q-17 1 -35.5 1h-38.5l-5 -114h38.5t36.5 1z" />
    <glyph glyph-name="dollar" unicode="$" horiz-adv-x="390" 
d="M111 -62q7 39 12.5 72.5t10.5 64t10 60t10 59.5q-28 25 -52.5 63t-39.5 80t-17.5 83.5t14 73.5t55.5 50t107 13q2 14 5 25t5 25q5 25 15 35.5t18.5 7.5t13 -18.5t-1.5 -43.5q-2 -10 -3.5 -16t-3.5 -16q39 -6 67.5 -33.5t29.5 -78.5l-41 -3q-2 38 -16.5 58t-44.5 25
l-42 -223q41 -44 71 -91t45 -92t14 -85.5t-23 -71t-66.5 -49t-114.5 -19.5q-4 -18 -7 -36.5t-7 -35.5q-3 -14 -10.5 -19.5t-15 -2t-12 17t-1.5 36.5q2 11 4 22.5t4 22.5q-25 6 -46 17t-35 28.5t-19.5 40t1.5 51.5q0 1 6 2.5t13.5 1.5t13.5 -1.5t6 -4.5q-14 -54 6.5 -75.5
t61.5 -19.5zM158 -52q42 14 58.5 37t16.5 51t-11.5 58t-26.5 59zM188 364l28 159q-33 -7 -44.5 -25.5t-11 -42t9.5 -48t18 -43.5z" />
    <glyph glyph-name="percent" unicode="%" horiz-adv-x="511" 
d="M150 -97q-4 -12 -18 -16.5t-27.5 -1t-22.5 15t-4 31.5q41 111 73.5 200.5t59 165.5t49.5 142t46 130q9 21 26.5 29t33 5t23.5 -17t-2 -37q-24 -63 -53 -141t-59.5 -163t-62.5 -173t-62 -170zM73 397q-34 10 -49 31.5t-15 46.5t13 50.5t34.5 44.5t50.5 27t60 -1
q21 -6 32 -24t11.5 -40.5t-8.5 -47t-26.5 -44.5t-43.5 -32.5t-59 -10.5zM310 -76q-34 10 -49 31.5t-15 46.5t13 50.5t34.5 44.5t50.5 27t60 -1q21 -6 32 -24t11.5 -40.5t-8.5 -47t-26.5 -44.5t-43.5 -32.5t-59 -10.5zM163 572q-18 6 -34.5 -2t-29.5 -23.5t-22 -36.5
t-12 -40.5t1 -35t16 -20.5q11 -4 25 4.5t28 24t25.5 36t17 39t3 33.5t-17.5 21zM398 97q-18 6 -34 -1.5t-29 -23.5t-21.5 -36.5t-11.5 -40t1 -34.5t17 -20q10 -4 24.5 4.5t28 24t25 35.5t16.5 38.5t2 33.5t-18 20z" />
    <glyph glyph-name="ampersand" unicode="&#x26;" horiz-adv-x="833" 
d="M414 -87q23 -38 56.5 -39.5t72.5 52.5q2 6 7.5 7.5t11 -0.5t8.5 -7.5t0 -14.5q-20 -30 -47.5 -50.5t-59.5 -27.5t-65.5 2.5t-64.5 39.5q-77 -30 -133 -32.5t-93.5 15.5t-57.5 52t-25 77t3 91t27.5 93.5t49 84.5t66.5 64q1 6 -1 27t-4 51t-0.5 65.5t9.5 70.5t26 66t49 52
q26 18 56 22.5t56.5 -3t44.5 -28t20 -53.5q3 -34 -10.5 -73.5t-38 -77t-56 -69t-62.5 -50.5q1 -23 8 -55t17 -69t23.5 -76t28 -74t30.5 -64t31 -46q51 15 96 49.5t79.5 79t57.5 95t29.5 97.5t-5 85.5t-44.5 60.5q-18 12 -45 7t-52 -24t-43.5 -50t-19.5 -71q0 -7 -14 -11
t-30.5 -1.5t-29.5 13t-13 33.5q1 55 25 91.5t60 53.5t79.5 15.5t82.5 -23.5q43 -24 61.5 -66.5t15.5 -93.5t-24.5 -107t-58 -106t-85 -90t-105.5 -60zM317 -98q-19 28 -42 72t-43 96.5t-35.5 109t-19.5 107.5q-29 -23 -47 -67.5t-22 -95.5t5.5 -101.5t34.5 -85.5t67 -47.5
t102 12.5zM255 356q24 9 45 30.5t38 48t27.5 55t13 53.5t-4.5 42t-26 21q-29 3 -48.5 -26t-30 -70.5t-14 -85t-0.5 -68.5z" />
    <glyph glyph-name="quotesingle" unicode="'" horiz-adv-x="173" 
d="M69 699q36 -4 52.5 -23.5t18.5 -46.5t-9 -58t-29 -56q-8 -11 -16 -13t-9 8q0 7 2.5 25t4 37t0.5 34.5t-9 18.5q-35 7 -49 20t-12 25.5t17 21.5t38 7z" />
    <glyph glyph-name="parenleft" unicode="(" horiz-adv-x="414" 
d="M399 869q0 -3 -8 -7t-21.5 -9.5t-31.5 -14.5t-39 -23q-73 -48 -118 -126t-66.5 -171.5t-21 -193.5t18 -190t51.5 -163t79 -112q14 -11 25.5 -17.5t7.5 -9.5q-5 -5 -21.5 -4t-36.5 6.5t-39.5 15t-31.5 21.5q-34 32 -61.5 82.5t-47 112.5t-29.5 133t-8 144t17.5 145.5
t46.5 137.5t79 119.5t116 92.5q17 10 39 17.5t43 12t37 5t21 -3.5z" />
    <glyph glyph-name="parenright" unicode=")" 
d="M0 -169q0 3 7.5 6.5t21 9.5t32 15t39.5 23q55 36 93.5 89.5t63.5 118t37 137t12 146t-10.5 144.5t-30 132.5t-47 110t-61.5 77.5q-14 12 -23.5 17.5t-9.5 10.5q0 6 15.5 5t37 -7t43.5 -15.5t34 -21.5q34 -32 61.5 -82.5t47 -112.5t29 -133t7.5 -144t-17.5 -145.5
t-46.5 -137.5t-79 -119.5t-115 -92.5q-17 -10 -39.5 -17.5t-43.5 -12t-37.5 -5t-20.5 3.5z" />
    <glyph glyph-name="asterisk" unicode="*" horiz-adv-x="345" 
d="M281 695q7 -9 -5.5 -20.5t-30.5 -21t-34 -17t-16 -9.5q1 -2 17.5 -9t35 -16t32.5 -19.5t10 -20.5q-5 -11 -21.5 -9t-35 9.5t-35.5 17t-22 12.5q-2 -4 -1 -19t1 -31.5t-2.5 -30t-12.5 -13.5q-17 -1 -22 11.5t-5 28.5t2.5 32t1.5 22q-11 -5 -26 -15t-30 -18t-28 -11t-19 6
q-8 10 -2 18.5t19 16.5t29 17t30 21q-6 4 -19 13t-25.5 19t-19.5 19.5t-1 16.5q9 9 22 5.5t26.5 -12t26 -18.5t20.5 -16q0 10 -1 27t-0.5 33.5t5 28.5t16.5 13q13 1 17.5 -13t4.5 -31.5t-2 -34.5t-1 -22q5 1 18.5 11t29.5 20t30.5 14.5t22.5 -5.5z" />
    <glyph glyph-name="plus" unicode="+" horiz-adv-x="403" 
d="M195 323q10 0 30.5 -0.5t44.5 -0.5t47.5 -0.5t38.5 -0.5q3 -2 4.5 -8.5t1.5 -14.5t-2 -15t-6 -8h-31.5h-39.5h-43.5h-43.5q-1 -25 -1 -62.5t-2 -70.5q0 -11 -9.5 -17.5t-21.5 -7.5t-22.5 5t-11.5 20v29.5v36v36t-1 30.5h-23.5h-34t-32 1t-18.5 4q-6 5 -8.5 17.5
t-1.5 20.5q3 1 20 2t37 1.5t39 0.5t26 1l2 121q9 0 19.5 1t20 1t16 -2.5t6.5 -9.5v-19.5v-33.5v-34.5v-22.5z" />
    <glyph glyph-name="comma" unicode="," horiz-adv-x="282" 
d="M93 81q36 -4 53 -22.5t19 -44t-9 -54.5t-30 -53q-14 -22 -25 -5q-6 10 -4.5 26.5t5 33t4.5 29.5t-7 16q-35 7 -49 20t-12 25.5t17 21.5t38 7z" />
    <glyph glyph-name="hyphen" unicode="-" horiz-adv-x="460" 
d="M402 317q3 -9 -4.5 -24.5t-27.5 -20.5q-9 -2 -33 -3t-57 -1.5t-71 0t-74 1t-67 1t-50 0.5q8 20 12 31.5t20 15.5q12 3 41.5 5t67 3t78 1t75.5 -1t60 -3t30 -5z" />
    <glyph glyph-name="period" unicode="." horiz-adv-x="296" 
d="M102 82q22 0 35 -11.5t14 -26.5t-10.5 -28t-37.5 -14q-27 -1 -41 11t-14 27.5t13.5 28.5t40.5 13z" />
    <glyph glyph-name="slash" unicode="/" horiz-adv-x="307" 
d="M292 717q-10 -53 -24 -123t-31.5 -150.5t-36.5 -166t-37.5 -168.5t-35.5 -159t-31 -137q-6 -29 -21.5 -41t-31 -10.5t-26 14.5t-4.5 34q23 118 49 234t52 231t51 227.5t46 223.5q4 14 17.5 18.5t28 2t25 -10.5t10.5 -19z" />
    <glyph glyph-name="zero" unicode="0" horiz-adv-x="353" 
d="M161 -35q-48 -3 -80.5 31t-51 91.5t-24 131.5t0 152t21.5 153.5t41 135t57.5 97t71.5 39.5q43 2 71 -32t43 -91.5t18 -132t-3.5 -152.5t-21.5 -153.5t-36.5 -135t-49 -96.5t-57.5 -38zM219 742q-11 0 -24.5 -31.5t-26 -83.5t-24 -118t-19 -135t-10.5 -134.5t1.5 -116.5
t16.5 -81.5t35 -28.5q17 1 34.5 32.5t33 82t28 115t19.5 131.5t8.5 132t-5.5 116t-23.5 84t-43.5 36z" />
    <glyph glyph-name="one" unicode="1" horiz-adv-x="290" 
d="M113 566q-3 1 -8 -3t-10.5 -9.5t-10 -11.5t-6.5 -8q-9 -6 -17 -2t-13 13t-8 21.5t-1 23.5q28 42 62 88t71 82q5 6 14.5 6.5t18 -3.5t14 -12t3.5 -18q-16 -92 -27 -185t-19.5 -186t-17 -186.5t-19.5 -186.5q5 0 17 0.5t21 1.5q6 0 9.5 -8.5t3.5 -19.5t-4.5 -20t-14.5 -9
q-28 -2 -69 -3.5t-89 -1.5q-8 -1 -10.5 7t-2.5 18.5t2.5 19.5t5.5 9q9 2 20.5 1.5t26.5 1.5q9 85 15.5 153.5t12.5 134t13 135t17 157.5z" />
    <glyph glyph-name="two" unicode="2" horiz-adv-x="453" 
d="M370 52q8 -5 13 -18.5t5.5 -28.5t-5 -27t-17.5 -15q-30 0 -70 -1.5t-82 -2.5t-82 -1.5t-70 1.5q-16 0 -30 5t-23 14.5t-10.5 23.5t8.5 34q13 26 44.5 69.5t70 96.5t78.5 112t71.5 116t48.5 109t9 90q-5 25 -19 37.5t-32 15.5t-38 -3t-36 -18q-36 -27 -56 -66.5t-44 -90.5
q-3 -8 -15.5 -11.5t-25.5 -3.5t-23.5 5t-10.5 16q-4 6 -1 26.5t12.5 48t25.5 57.5t39 56.5t53 46t67 23.5q32 4 59.5 -4.5t49.5 -25.5t36.5 -41.5t19.5 -52.5q9 -54 -11 -117.5t-55 -128t-78.5 -125.5t-80.5 -109t-60.5 -79t-19.5 -35q5 -6 26 -7.5t50 -1.5t62.5 2t63.5 4
l52.5 3.5t30.5 1.5z" />
    <glyph glyph-name="three" unicode="3" horiz-adv-x="427" 
d="M230 477q58 -12 91 -54t44 -99t2 -120.5t-35 -118t-67 -92t-94 -41.5q-50 -4 -85 11.5t-54 42.5t-21.5 62t11.5 69q2 7 6 7.5t8.5 -2t7 -6t1.5 -5.5q-12 -23 -10 -52t15.5 -52t37.5 -34t57 1q30 11 56.5 49t44 88t23.5 103.5t-3.5 95t-36.5 63t-77 7.5q-8 -4 -15.5 1.5
t-12 15t-5 20.5t5.5 17q36 9 69.5 36.5t59 63t40 74t14.5 69.5q-1 31 -16.5 42.5t-39 9.5t-50.5 -15.5t-50.5 -32.5t-38.5 -42t-15 -44q-6 -9 -24 -10t-35.5 3t-30 13.5t-8.5 21.5q2 30 25 60.5t57.5 55t75 40.5t78.5 16.5t67.5 -18t41.5 -61.5q11 -38 1.5 -78.5t-29 -76.5
t-44 -64t-43.5 -40z" />
    <glyph glyph-name="four" unicode="4" 
d="M233 278q1 4 3.5 28.5t5.5 54t5.5 55t4.5 30.5q1 23 15.5 34t30.5 11t29 -10t11 -30q0 -8 -2.5 -32.5t-4.5 -52.5t-4.5 -53t-2.5 -34q7 1 21.5 2.5t29.5 -0.5q4 1 5.5 -5.5t1 -15t-3.5 -15t-8 -5.5q-20 -1 -33 -1.5t-18 -2.5q-1 0 -2.5 -17t-4 -44t-5.5 -59.5t-6 -64.5
t-5 -59.5t-3 -43.5q-1 -14 -14 -21.5t-28.5 -8t-28.5 7t-13 24.5q1 38 3.5 81.5t5.5 83t5.5 71.5t3.5 48q-28 0 -60 -1t-61.5 2t-53.5 13.5t-37 34.5q-17 32 -15 75t15.5 92t36.5 100t49 98.5t51 87.5t44 67q11 21 29 20.5t35 -13t29 -33.5t10 -42q-1 -12 -21 -42t-49 -70.5
t-61 -87t-56.5 -91t-37 -83.5t-1.5 -64q7 -17 26 -22.5t42.5 -5.5t48.5 3.5t43 5.5z" />
    <glyph glyph-name="five" unicode="5" horiz-adv-x="425" 
d="M244 355q-15 26 -38 28t-48 -4t-49 -11t-41 8q-8 6 -10.5 33.5t-1 65.5t6 81.5t9.5 81.5t9.5 64.5t6.5 31.5q3 5 20 8.5t41.5 5t54 1t57.5 -2t51 -3.5t35 -5q13 -3 18.5 -14.5t4.5 -23.5t-8 -21.5t-17 -9.5q-45 3 -94 2.5t-97 -1.5q-4 -21 -7 -55t-5 -67t-2.5 -58
t0.5 -28q22 4 45 6t45.5 0t43 -10t38.5 -24q31 -26 47.5 -77t19 -111.5t-9.5 -124t-39 -116t-69 -85.5t-99 -33q-55 0 -91 22t-53.5 54t-17.5 68.5t16 65.5q3 4 8.5 5t10.5 -1.5t6.5 -8.5t-3.5 -14q-10 -15 -9.5 -40.5t13.5 -49t38 -38t65 -8.5q28 4 51 29t39 62.5
t25.5 82.5t11 89.5t-5.5 84t-22 65.5z" />
    <glyph glyph-name="six" unicode="6" horiz-adv-x="354" 
d="M266 624q-1 18 -6 39t-13.5 36t-21 19.5t-28.5 -10.5q-13 -12 -24.5 -43.5t-21.5 -71.5t-18 -84t-12 -79.5t-4.5 -58t3.5 -19.5q48 26 83.5 19.5t58.5 -35.5t34.5 -74t11.5 -94.5t-11 -97.5t-32 -83q-20 -32 -47.5 -48t-57.5 -17t-58.5 13t-48.5 43q-22 32 -34.5 83.5
t-16.5 115t-0.5 134t14 140t27 134t38.5 115.5t49 84.5t57 40.5q18 4 34 -3.5t29.5 -30t23.5 -60.5t14 -94q0 -15 -3 -22t-6.5 -8t-7.5 4t-5 13zM168 -23q19 0 32 25t20.5 63t8.5 83.5t-5 85.5t-19 69t-34 35q-17 5 -31 -4t-19 -27q-3 -12 -5 -41.5t-2 -66t2.5 -75.5
t9 -71.5t16.5 -54t26 -21.5z" />
    <glyph glyph-name="seven" unicode="7" horiz-adv-x="375" 
d="M234 706q-11 13 -38.5 20t-58.5 7t-58.5 -6.5t-37.5 -19.5q-10 -12 -8 -25t2 -18q0 -3 -4.5 -6.5t-10 -5t-11 -0.5t-6.5 6q-18 43 -3.5 74t48 49.5t79 25.5t88 1.5t76 -22t42.5 -43.5q6 -17 7 -37.5t-2 -41t-8.5 -39t-12.5 -32.5q-43 -102 -72 -186t-49.5 -159
t-33 -145.5t-22.5 -144.5q-1 -19 -12.5 -30.5t-25 -12.5t-24.5 10t-11 38q8 69 26 149t40 161q5 18 17.5 53.5t27 79t29 91.5t24 90t11.5 74t-8 45z" />
    <glyph glyph-name="eight" unicode="8" horiz-adv-x="395" 
d="M247 393q28 -18 49.5 -58.5t32 -91t9 -105.5t-18.5 -101t-51 -77t-88 -34q-65 -4 -104.5 22.5t-58 70.5t-17.5 99.5t17 111t45 104.5t67 79q-24 27 -38 68t-17 86t4.5 90.5t25.5 82t47.5 60.5t70.5 26q48 2 78.5 -22t45 -63.5t15 -89t-13 -98t-39 -91.5t-61.5 -69z
M241 336q-15 19 -30 22.5t-30 -11.5t-30.5 -48.5t-28 -74.5t-18.5 -85t-2 -80t21.5 -59.5t53.5 -22.5q37 0 61 21.5t36.5 55t14.5 74.5t-3.5 80.5t-17 74t-27.5 53.5zM196 447q15 8 30.5 34.5t27 61t17.5 73t3 71.5t-17.5 54.5t-42.5 23.5q-31 1 -51 -16t-31 -45
t-13.5 -63.5t1.5 -70t13 -65.5t22 -49q5 -7 16 -13.5t25 4.5z" />
    <glyph glyph-name="nine" unicode="9" horiz-adv-x="370" 
d="M246 781q1 14 15 21t31 7.5t32.5 -4t19.5 -14.5q1 -35 2 -91.5t1 -125t-2.5 -144t-9 -149.5t-18.5 -142t-30.5 -120.5t-44.5 -86t-62 -37.5q-33 -4 -57.5 17.5t-40.5 51.5t-24 61t-8 47q0 8 9.5 15t16.5 -4q-1 -26 7 -53t22 -47.5t32 -31t37 -3.5q11 5 20.5 42t16.5 90.5
t12 116.5t7.5 120t3 100t-1.5 56q-7 -24 -22 -46.5t-34.5 -39t-41 -24.5t-41.5 -4q-35 5 -56 39t-28.5 81.5t-1.5 101t24.5 98.5t50 73.5t75.5 26.5q21 -1 36.5 -6.5t27 -12.5t17.5 -14t8 -11q2 -1 0.5 13.5t-0.5 32.5zM234 541q1 7 3 25.5t3.5 39t2.5 37.5t1 22
q-1 9 -3.5 23.5t-9.5 27.5t-19.5 22.5t-34.5 8.5q-19 -1 -33 -27.5t-24 -66t-15 -85t-6 -85t3 -66t12 -26.5q19 -1 38.5 13.5t36 37t28.5 49.5t17 50z" />
    <glyph glyph-name="colon" unicode=":" horiz-adv-x="238" 
d="M107 80q22 0 35 -11.5t14 -26.5t-10.5 -28t-37.5 -14q-27 -1 -41 11t-14 27.5t13.5 28.5t40.5 13zM107 342q22 0 35 -11.5t14 -26.5t-10.5 -28t-37.5 -14q-27 -1 -41 11t-14 27.5t13.5 28.5t40.5 13z" />
    <glyph glyph-name="semicolon" unicode=";" horiz-adv-x="253" 
d="M119 78q36 -3 53 -21.5t19 -44t-9 -54.5t-30 -53q-14 -23 -25 -6q-6 10 -4.5 26.5t5 33t4.5 29.5t-7 16q-35 7 -49 20.5t-12 26t17 21t38 6.5zM118 343q22 0 35 -11.5t14 -26.5t-10.5 -28t-37.5 -14q-27 -1 -41 11t-14 27.5t13.5 28.5t40.5 13z" />
    <glyph glyph-name="less" unicode="&#x3c;" horiz-adv-x="555" 
d="M443 -92l-428 346l-15 12l16 11l428 300l53 -23q-17 -14 -48.5 -36t-69.5 -48.5t-80 -55.5t-80.5 -56.5t-70.5 -51t-50 -39.5l403 -335z" />
    <glyph glyph-name="equal" unicode="=" horiz-adv-x="445" 
d="M393 384q1 -5 -1 -13t-7.5 -16t-14 -15t-18.5 -10q-9 -2 -33 -3t-57 -1.5t-71 0t-74 1t-67 1t-50 0.5q8 20 16.5 36t24.5 20q12 3 41.5 5t67 3t78 1t75.5 -1t60 -3t30 -5zM393 186q-5 -3 -30 -5t-60 -3t-75.5 -1t-78 1t-67 3t-41.5 5q-16 4 -24.5 17.5t-16.5 33.5
q19 0 50 0.5t67 1t74 1t71 0t57 -1.5t33 -3q10 -3 18.5 -9t14 -13.5t7.5 -15t1 -11.5z" />
    <glyph glyph-name="greater" unicode="&#x3e;" horiz-adv-x="526" 
d="M58 577l428 -347l15 -12l-16 -11l-428 -299l-53 22q17 14 48.5 36t69.5 48.5t80 55.5t80.5 56.5t70.5 51.5t50 40l-403 334z" />
    <glyph glyph-name="question" unicode="?" horiz-adv-x="368" 
d="M188 205q-4 -11 -6 -33.5t-2 -48.5t0.5 -51t1.5 -41q1 -9 -11 -13.5t-27.5 -4.5t-29 3.5t-14.5 11.5v39.5t0.5 62t3.5 60t9 32.5q33 31 60.5 75t47 92t30 96t10 86.5t-12.5 62.5t-38 26q-18 1 -39.5 -20t-41 -53t-34 -69.5t-18.5 -69.5q-5 -15 -19 -15t-28 8.5t-24 23
t-6 27.5q3 23 13 49t25.5 51t36 47t43.5 37t48.5 20t51.5 -3q36 -12 55.5 -43.5t25 -75t-1 -94.5t-22 -101.5t-38 -96t-49.5 -77.5zM88 -117q5 4 19 7.5t31 3.5q16 0 29.5 -4.5t16.5 -10.5q5 -10 2 -25t-11 -29t-21 -23.5t-27 -8.5q-17 1 -27 13t-14.5 27t-4 29.5t6.5 20.5z
" />
    <glyph glyph-name="at" unicode="@" horiz-adv-x="759" 
d="M393 94q-7 -14 -20 -29t-29.5 -26.5t-35 -17t-35.5 -0.5q-40 11 -58.5 45t-19 78.5t15 92.5t45 85.5t71.5 57.5t93 10q27 -5 46 -27.5t27 -48.5q0 -2 -4 -4.5t-8 -4t-7.5 -1.5t-3.5 2q0 8 -6 18.5t-14 19.5t-18.5 15t-19.5 5q-23 -2 -43 -26t-35.5 -59.5t-26.5 -76.5
t-15.5 -75t-2.5 -56t13 -19q23 5 42 23.5t34.5 43t28 51.5t22 50.5t16.5 39t12 17.5q5 7 16 8.5t21.5 -2.5t17 -13t3.5 -22q-9 -15 -20 -44.5t-19.5 -63t-11.5 -66t4.5 -52.5t28 -23t60.5 22q22 13 41 38t31.5 57t18.5 68.5t4 73t-14 70.5t-35 60q-35 40 -87 62t-110 26
t-116 -9.5t-106 -44.5q-56 -37 -89 -90t-43 -110t2.5 -113t47.5 -99q36 -46 94.5 -72.5t126 -33t138 7t132.5 48.5q15 7 27.5 5t17 -9t-1.5 -17.5t-28 -20.5q-61 -32 -135.5 -47t-149 -9t-141 34t-111.5 82t-61 121t-5 134t49 127.5t101 102.5q50 33 112 48.5t125 12.5
t122.5 -24t104.5 -60q41 -37 62.5 -83.5t25.5 -96.5t-7 -99t-35 -90.5t-59 -71.5t-77 -42q-42 -11 -71 -1.5t-46 31t-21.5 50.5t2.5 57z" />
    <glyph glyph-name="A" unicode="A" horiz-adv-x="733" 
d="M639 941q0 -17 -2 -62.5t-5 -111t-6 -145.5t-5.5 -166t-3.5 -174t0.5 -168.5t6 -149t12.5 -116.5t21 -71t32 -12q5 3 9.5 -4t-2.5 -11q-47 -25 -79.5 -9.5t-54 60.5t-34 114t-17.5 151t-5 171.5t2 174.5h-85q-23 -79 -48.5 -159.5t-53 -155t-56 -140t-58.5 -115t-61 -80
t-62 -33.5q-29 -3 -47 11t-27 39t-10 56t5 62h22q-5 -15 -5.5 -39t4 -46.5t15.5 -37t29 -11.5q17 3 38 30.5t44.5 74t48.5 108.5t51 133t51.5 148.5t49.5 154.5l8 24q29 97 54.5 186t45.5 161q-23 -18 -51 -29t-58 -15.5t-60.5 -3t-56.5 8.5v31q33 -10 74 -9.5t80 17.5
t70 55.5t43 105.5q2 9 20.5 14.5t41.5 6t44.5 -5t30.5 -18.5zM431 436h78q3 70 6.5 133.5t6.5 115t5.5 87.5t3.5 51q-5 -23 -14 -62t-22 -89.5t-29 -110.5t-35 -125z" />
    <glyph glyph-name="B" unicode="B" horiz-adv-x="970" 
d="M329 941q-1 -34 0 -68.5t2 -69.5q6 21 16.5 44.5t26 44.5t36 37.5t47.5 23.5q58 15 106.5 -1.5t82.5 -53.5t49.5 -86.5t6 -99.5t-46.5 -94t-109 -69q75 -11 123.5 -54.5t74 -105t29.5 -135t-8 -143.5q13 3 35.5 13t45.5 26t43 36.5t28 43.5q0 4 6.5 5t14 -0.5t11.5 -6
t-1 -12.5q-15 -29 -41.5 -54t-55 -44t-54.5 -31t-40 -13q-15 -56 -42 -112t-62 -98t-76 -63.5t-84 -9.5q-34 12 -45 38.5t-5 59.5t26 68.5t48 65.5t61 50.5t66 22.5q11 67 7 136t-27 127.5t-67 100.5t-112 55q-25 -6 -38.5 2.5t-14.5 20.5t12 22.5t40 9.5q54 18 85 51.5
t44 73t10 80.5t-17.5 74t-37.5 53t-51 18q-24 -2 -44.5 -17.5t-38.5 -42.5t-33.5 -63.5t-28.5 -78.5q1 -83 2 -176.5t-1 -189t-8.5 -187.5t-19.5 -171q-11 -61 -26.5 -103.5t-37.5 -59.5q-14 -11 -32 -12.5t-31.5 2t-19.5 11t4 13.5q20 12 32 68.5t19 140.5t9 186.5t2 207
t-1.5 201.5t-2.5 171q-38 -66 -96.5 -87t-122.5 -10v31q34 -8 67.5 -4.5t62.5 21t52 50t37 82.5v22t1 18q0 10 17 14t37.5 3.5t37 -5.5t16.5 -14zM487 -156q22 -8 45 10t43.5 50.5t37 74t26.5 82.5q-21 -3 -44 -18.5t-43.5 -37.5t-38 -47.5t-27 -48.5t-10.5 -40.5t11 -24.5z
" />
    <glyph glyph-name="C" unicode="C" horiz-adv-x="712" 
d="M695 195q-14 -42 -34 -90.5t-44.5 -97t-52.5 -94t-58 -81t-61 -57.5t-62 -24q-58 -3 -99.5 31t-69 94.5t-41.5 142t-15.5 173t8 187.5t29 185t48.5 166t65 130q-15 7 -37.5 20t-48 23.5t-51.5 14.5t-50 -7q-18 -9 -35 -33.5t-29.5 -58t-20 -72.5t-7.5 -76h-29q1 36 6 77
t17.5 78.5t34 68t55.5 45.5q27 12 53.5 11.5t53 -10t52.5 -25.5t52 -34q28 35 69.5 56t77.5 23q32 1 58.5 -14t44.5 -39t27 -52.5t7 -54t-16 -43t-41.5 -20.5t-70 14t-101.5 61q-20 -52 -35.5 -123.5t-25 -152.5t-13.5 -167.5t-3 -169t7.5 -156.5t18.5 -130.5t29 -90.5
t40 -36q18 -2 43 20.5t52.5 59.5t55 84t51.5 94t41.5 89t25.5 70l14 -4zM390 838q72 -47 114 -58t60.5 -0.5t16.5 35.5t-17 51t-40.5 45t-53.5 18q-23 -2 -43 -28t-37 -63z" />
    <glyph glyph-name="D" unicode="D" horiz-adv-x="939" 
d="M362 715q-5 -170 -4.5 -313t-6 -254t-26 -188t-62.5 -113q-14 -12 -33.5 -18t-34.5 -6.5t-22.5 5t2.5 17.5q20 12 32 67.5t19 138t9.5 183.5t2.5 204.5t-1.5 200.5t-2.5 171q-20 -30 -47.5 -49t-59 -29.5t-64 -12.5t-63.5 4v31q32 -7 66.5 -4t66.5 18t58.5 43.5
t42.5 72.5v33.5t1 25.5q0 10 19.5 14t43 3.5t42.5 -5.5t19 -14q-1 -36 0 -72.5t2 -72.5q10 34 28.5 66t44 54.5t57.5 34t70 5.5q44 -7 79.5 -50t61.5 -109.5t42 -151.5t22.5 -176.5t2 -184.5t-19.5 -175q18 2 38.5 14t40 30.5t36 43.5t25.5 52q1 3 6.5 6t11.5 3t11 -3.5
t4 -12.5q-5 -19 -21 -46t-40 -52.5t-54 -45t-64 -23.5q-13 -56 -32.5 -104t-45 -84t-56.5 -56.5t-67 -20.5q-48 0 -72.5 20t-29 50.5t8.5 66.5t39 68.5t63.5 57t81.5 31.5q11 74 16 158.5t4 169t-8.5 165t-22 145.5t-36 110t-49.5 60t-54 3.5t-48.5 -40t-41 -70.5t-31.5 -90
zM627 69q-28 -5 -54.5 -22.5t-47 -41.5t-33.5 -50.5t-14.5 -49.5t10.5 -39.5t41 -18.5q15 -1 29.5 18t27 50.5t23 71.5t18.5 82z" />
    <glyph glyph-name="E" unicode="E" horiz-adv-x="742" 
d="M486 945q46 -15 74 -40.5t37 -52t-0.5 -47.5t-38.5 -26t-77.5 12.5t-117.5 67.5q-2 2 -6 4q-25 -31 -37 -73.5t-4 -84.5t41 -79t98 -56q27 1 40 -9.5t12 -22.5t-14.5 -20.5t-38.5 -2.5q-55 -4 -92 -37.5t-58 -86t-28 -118t-1.5 -133.5t21 -133t39 -115t53.5 -80t64 -29
q22 1 46 23t48 58t47 82t43 95t37 97t28 88l31 -8q-27 -93 -60 -176t-69 -146.5t-74.5 -104t-78.5 -48.5q-70 -14 -126.5 9t-97 72t-65 117.5t-30.5 143.5t6.5 151t45.5 140t87.5 110.5t131.5 62.5q-54 13 -90 38.5t-57 57.5t-27.5 68.5t-1 72t22 68t41.5 56.5
q-21 13 -42 24t-42 16t-43 3t-45 -13q-24 -12 -41.5 -38t-29 -59.5t-16.5 -72t-5 -75.5l-26 -1q1 36 6 76.5t17.5 78t34 68t55.5 47.5q25 12 51 13.5t51 -4.5t49.5 -18t47.5 -27q42 26 86 28t88 -11zM375 883q56 -39 94.5 -57t62.5 -21t35 5.5t10 22.5t-12.5 30.5t-30.5 30
t-45.5 19.5t-57.5 0q-15 -3 -29 -11t-27 -19z" />
    <glyph glyph-name="F" unicode="F" horiz-adv-x="700" 
d="M170 966q36 5 71 -3.5t69.5 -24t68.5 -34t67.5 -32.5t66.5 -20t66 3q14 4 26.5 11.5t16.5 21.5q7 24 -6.5 36.5t-31.5 11t-32 -17.5t-9 -47h-20q-8 39 10 61t42.5 25.5t48 -11t27.5 -48.5q3 -24 -7.5 -47.5t-29 -41.5t-42 -29t-45.5 -9q-29 2 -59 15t-58 31.5t-53.5 38.5
t-46.5 35q4 -116 4.5 -220t1.5 -209l16 3t40.5 3.5t52 -3t51 -16t38.5 -35.5t13 -61q-1 -11 -7.5 -16t-13.5 -5t-12.5 4.5t-3.5 13.5q3 28 -7 44t-27.5 24t-39 9t-42 -1t-36.5 -5t-22 -3q0 -98 -4.5 -188t-15 -167.5t-27 -140t-40.5 -105t-55 -62.5t-71 -12q-8 0 -10.5 4.5
t-2 10.5t4 11.5t8.5 6.5q27 -6 45.5 34t30 110.5t17 164.5t7.5 196t1 205t-3 191.5t-3.5 155t-0.5 96.5q-56 8 -92.5 -10.5t-56.5 -54.5t-24.5 -84t2.5 -100l-21 -2q-6 42 -5 88t17.5 87t52 71.5t100.5 41.5z" />
    <glyph glyph-name="G" unicode="G" horiz-adv-x="767" 
d="M476 53q-2 60 20.5 87.5t54.5 30.5q41 4 66 -15.5t38.5 -51t17.5 -70t3 -71.5q-1 -28 -3 -65.5t-7.5 -77t-16.5 -79t-31 -73t-51 -57t-75 -31.5q-40 -7 -70 16t-31 72q0 4 5.5 6.5t12 2.5t12 -1.5t5.5 -5.5q-2 -19 4 -33.5t17 -22.5t26.5 -9t32.5 8q15 7 25.5 29t17 52
t10.5 65t6.5 69.5t3.5 65t3 51.5q-8 -27 -26.5 -61t-43.5 -63.5t-55.5 -49.5t-63.5 -20q-62 1 -105.5 37t-71.5 97.5t-41 143t-13.5 172t10.5 184.5t32 182t51 164t66 129q-52 36 -102 51t-91 -7q-24 -13 -41 -37t-27.5 -55.5t-15.5 -67.5t-5 -73h-29q1 36 6 77t16.5 77.5
t30.5 65.5t48 43q31 15 60.5 15.5t58 -8.5t55 -25t52.5 -34q28 35 68 54.5t76 19.5q29 0 54 -15.5t43 -38.5t28.5 -50t10 -51t-13 -41t-40 -20t-71 11.5t-105.5 53.5q-20 -52 -35.5 -123.5t-25 -153t-14 -168.5t-3.5 -169.5t7.5 -156.5t18 -129.5t28.5 -88t40 -33.5
q19 0 50 26.5t60 67t49 88.5t19 90q0 23 -8 42.5t-24 24.5q-8 2 -15 -2t-12 -12.5t-7 -21t2 -27.5q-5 -13 -15.5 -12t-15.5 6zM391 837q72 -47 114 -58t60.5 -0.5t16.5 36t-17.5 51t-41 45t-53.5 18.5q-23 -2 -42.5 -28.5t-36.5 -63.5z" />
    <glyph glyph-name="H" unicode="H" horiz-adv-x="818" 
d="M3 720v31q16 -3 43.5 -4t58 0.5t59 6t46.5 10.5q9 57 25.5 94.5t37 60.5t43.5 33t46 11q30 1 48 -21.5t17.5 -56.5t-24 -71.5t-75.5 -64.5q-8 -69 -11.5 -149.5t-4.5 -158.5t-0.5 -146.5t0.5 -112.5q27 21 60 59t66 80.5t62.5 85t49.5 73.5v75t3 99t10 106.5t22 97.5
t38.5 72.5t60.5 31.5q43 3 64 -23.5t25.5 -69t-4 -95t-24 -102.5t-36.5 -91t-40 -60q0 -36 0.5 -88t0.5 -113t-2 -127.5t-8 -130.5t-18 -122t-31 -103t-46.5 -73.5t-66.5 -32.5q-18 -2 -26.5 0.5t-9.5 7.5t4.5 12t16.5 13q14 8 24.5 39t18 76t12 100.5t7 113t3.5 113.5
t1 102v77.5v41.5q-14 -26 -42 -67t-62 -84t-70 -81t-64 -57q-2 -75 -13 -149.5t-33 -134t-56 -96.5t-82 -35q-45 1 -64 25t-19.5 61t14.5 81.5t37.5 86.5t49.5 77t51 52v83v105.5t0.5 117t1.5 118t4 109t8 90.5q-18 -5 -46.5 -7.5t-59 -4t-58.5 -1t-43 3.5zM704 922
q-15 0 -23 -17t-12 -46t-4.5 -66.5t0 -77t0.5 -78.5t-1 -71q16 20 30.5 54.5t25.5 74t17.5 79.5t5.5 73t-10 53.5t-29 21.5zM198 61q-14 -12 -31 -38.5t-33 -58.5t-28.5 -67t-17 -63t0 -46.5t23.5 -18.5q15 0 27 19t21 48.5t16 65t12 68t7 57.5t3 34zM331 790q24 14 39 37
t20.5 44.5t1.5 38.5t-19 19q-5 1 -11 -9t-12 -28.5t-11 -44.5t-8 -57z" />
    <glyph glyph-name="I" unicode="I" horiz-adv-x="358" 
d="M311 941q-2 -53 -1.5 -127t1 -159.5t0 -178.5t-4 -185t-11.5 -178t-23 -157.5t-37.5 -123.5t-55.5 -77q-14 -11 -28.5 -12.5t-25 2.5t-13 10.5t7.5 12.5q15 9 26 47.5t19 97t13.5 133.5t9 158t5 169.5t1.5 168v153.5t-1 127q-26 -67 -77 -88.5t-116 -10.5v31
q36 -8 67.5 -3.5t56.5 24t43 56.5t26 94q0 19 18.5 26.5t40.5 7t40.5 -6t18.5 -11.5z" />
    <glyph glyph-name="J" unicode="J" horiz-adv-x="472" 
d="M399 941q0 -52 4 -130.5t7.5 -171t4 -193t-7 -198t-25.5 -185.5t-51.5 -155.5t-84.5 -108t-125 -42.5q-36 -1 -59 22t-34 61t-11.5 87t8 100t25 100.5t39.5 87.5l19 -8q-17 -28 -31.5 -67t-24 -81t-13.5 -83.5t0.5 -74t19.5 -53t42 -21.5q60 -1 97.5 48t59 130.5
t29 186.5t8 216t-4 218.5t-6.5 194.5q-27 -66 -77.5 -87.5t-115.5 -10.5v31q35 -8 66 -4t55.5 22.5t43 52.5t27.5 87v31q0 10 18.5 14t40 3.5t39.5 -5.5t18 -14z" />
    <glyph glyph-name="K" unicode="K" horiz-adv-x="879" 
d="M313 941v-95t-0.5 -100t-1.5 -110.5t-2 -127.5q28 4 50.5 29t41 60.5t35 77.5t33.5 80t36 68t42 41.5t52 1t67 -53.5l-18 -20q-21 23 -39.5 11.5t-35.5 -43.5t-34 -76t-35 -85.5t-38 -72t-44 -35.5q36 -12 61.5 -43.5t42.5 -75.5t27.5 -96t17 -104.5t10.5 -102.5t7.5 -89
t8.5 -63.5t14 -26.5q15 -4 34.5 14.5t41.5 50.5t43.5 72.5t40.5 79.5t32.5 72.5t19.5 51.5h38q-11 -21 -26.5 -57t-35.5 -78t-43.5 -85.5t-50 -78.5t-56 -57.5t-60.5 -21.5q-42 1 -67 26t-39 66.5t-20 94t-11 108.5t-11.5 110t-21.5 97.5t-41 72.5t-69 34q-2 -116 -5 -228.5
t-15.5 -207.5t-38 -166t-71.5 -105q-14 -10 -28.5 -11.5t-25 2t-13 10t7.5 12.5q15 9 26 47.5t19 97t13.5 133.5t9 158t5 169.5t1.5 168v153.5t-1 127q-26 -67 -77 -88.5t-116 -10.5v31q36 -8 67.5 -3.5t56.5 24t43 56.5t26 94q0 13 9 20.5t22 10.5t29 2.5t29 -3t22 -6.5
t9 -8z" />
    <glyph glyph-name="L" unicode="L" horiz-adv-x="675" 
d="M310 941q-3 -68 -3 -151t0.5 -173t-1 -183.5t-6.5 -183t-16.5 -172t-30.5 -149.5q22 -10 56.5 -15t74.5 -2.5t81 13t77.5 31.5t64 53t39.5 77l19 -3q-10 -79 -35 -133t-60.5 -86.5t-78.5 -46t-88 -11.5t-89.5 18t-83.5 42q-9 -20 -21 -40.5t-27 -38t-32.5 -28.5
t-35.5 -11q-34 -1 -51.5 16.5t-22 43t3.5 54t25.5 51.5t43.5 35t57 4q9 56 14.5 127t8 148.5t3.5 159t0.5 159.5t-1.5 148.5t-2 127.5q-26 -67 -77 -88.5t-116 -10.5v31q36 -8 67.5 -3.5t56.5 24t43 56.5t26 94q0 19 18.5 26.5t40 7t40 -6t18.5 -11.5zM157 -104
q-20 8 -36.5 2.5t-28 -18t-17.5 -29.5t-4.5 -32.5t10 -26t26.5 -10.5q10 0 18 10t14.5 26t11 36.5t6.5 41.5z" />
    <glyph glyph-name="M" unicode="M" horiz-adv-x="785" 
d="M747 941q0 -36 -4.5 -104t-11.5 -154.5t-15 -186t-14.5 -199t-10.5 -192t-4 -165.5t6 -120.5t20 -55.5q10 -6 7 -13.5t-13 -11t-25 -2t-29 12.5q-35 28 -52 101.5t-21.5 172t1 211.5t14 220.5t18 198.5t13.5 146q-14 -56 -44 -119.5t-74 -120.5q-17 -23 -26 -34.5
t-16.5 -11t-17 13l-28.5 37.5q-40 54 -68.5 113.5t-42.5 112.5q1 -74 1.5 -172t-2.5 -204.5t-10.5 -213t-22.5 -197t-38.5 -157t-57.5 -92.5q-14 -11 -28.5 -12.5t-25 2.5t-13 10.5t7.5 12.5q15 9 26 47.5t19 97t13.5 133.5t9 158t5 169.5t1.5 168v153.5t-1 127
q-26 -67 -77 -88.5t-116 -10.5v31q36 -8 67.5 -3.5t56.5 24t43 56.5t26 94q-1 21 17 29.5t40 7t40 -12t18 -26.5q7 -34 20.5 -79t33.5 -93t46 -95t58 -85q38 42 65 89.5t45.5 95t30 91.5t19.5 78q0 19 19 26.5t42 7t41.5 -6t18.5 -11.5z" />
    <glyph glyph-name="N" unicode="N" horiz-adv-x="767" 
d="M309 933q3 -24 11 -75.5t20.5 -120t28 -148.5t33 -160.5t36 -155.5t36.5 -135t34 -98t30 -44q8 77 13 168.5t7 186t1.5 186.5t-1.5 169t-3 134t-4 82q0 19 20.5 27t44.5 7t44 -9t20 -20q-1 -41 -1.5 -109t-1.5 -151.5t-3.5 -177.5t-8 -188.5t-15 -183.5t-24.5 -163
t-37 -127.5t-52 -75.5q-14 -11 -28.5 -12.5t-25 2.5t-13 11t7.5 13q19 11 32 58.5t23 119.5q-20 8 -44.5 54.5t-52.5 139t-59.5 235t-64.5 342.5q1 -79 1 -174t-3.5 -193.5t-11.5 -195t-23 -177t-38.5 -140t-57.5 -83.5q-14 -10 -29 -11.5t-25 2t-12.5 10.5t7.5 13
q15 9 26 47t19 97t13.5 134t9 157.5t5 169t1.5 168v153.5t-1 127q-26 -66 -77 -88t-116 -11v32q36 -8 67.5 -3.5t56.5 24t43 56.5t26 94q2 17 20 25t39 8.5t38.5 -5.5t18.5 -17z" />
    <glyph glyph-name="O" unicode="O" horiz-adv-x="455" 
d="M165 -256l2 30q24 2 44.5 34.5t36.5 87t27 126t18 151.5t9.5 164.5t0.5 164t-9 149.5t-18.5 123t-28 83t-37.5 29q-28 -1 -50 -47.5t-37.5 -121.5t-25.5 -170.5t-13.5 -194t-1.5 -192t10 -165t21.5 -113t32.5 -35.5l-2 -24q-37 -13 -65.5 29t-46.5 119t-26 180t-5 212.5
t17.5 215.5t41 190t65.5 135.5t92 52.5q58 1 99.5 -39.5t68.5 -109.5t40 -160t14.5 -190.5t-9 -200.5t-30.5 -190.5t-49.5 -161t-66.5 -110.5q-23 -24 -55.5 -37.5t-63.5 -13.5z" />
    <glyph glyph-name="P" unicode="P" horiz-adv-x="647" 
d="M310 941q-1 -15 -0.5 -37t1.5 -51q10 20 31.5 35.5t46.5 17.5q61 0 104.5 -27.5t71 -72t39 -101.5t9 -116.5t-18.5 -116t-44.5 -101t-68.5 -71t-90 -25.5q-28 1 -48 15.5t-35 37.5q-4 -99 -14 -195.5t-27.5 -176t-43.5 -135.5t-62 -74q-19 -10 -31.5 -10t-18 5t-3.5 12.5
t12 13.5q15 9 26 47.5t19 97t13.5 133.5t9 158t5 169.5t1.5 168v153.5t-1 127q-26 -67 -77 -88.5t-116 -10.5v31q36 -8 67.5 -3.5t56.5 24t43 56.5t26 94q0 19 18.5 26.5t40 7t40 -6t18.5 -11.5zM310 380q14 -31 36.5 -50t54.5 -8q32 10 52 51t29.5 97.5t9.5 120.5
t-10 121.5t-28.5 100.5t-44.5 57q-20 10 -37 5t-30 -19t-21 -34.5t-9 -40.5q2 -81 1.5 -185t-3.5 -216z" />
    <glyph glyph-name="Q" unicode="Q" horiz-adv-x="485" 
d="M175 -229q14 -1 25 8t17 21q-64 9 -108 63.5t-69.5 137.5t-34 185.5t-3 208.5t24 206.5t47.5 179.5t67.5 127t83.5 49q60 1 101.5 -39.5t68 -110t38 -160t10.5 -190t-13.5 -200t-34 -189t-51.5 -158.5t-66 -108q21 -23 25.5 -52t0 -59t-15.5 -59.5t-21 -53.5t-16 -40
t-1 -20q7 -5 23 0.5t37 23t45 47.5t48 74l22 -9q-23 -44 -47.5 -80t-50 -62t-50.5 -39.5t-49 -10.5q-35 4 -45 25.5t-5.5 53t19.5 68t29 70.5t23 60.5t3 37.5q-15 -13 -33.5 -21.5t-45.5 -6.5zM228 -171q20 43 35 111t25.5 150t15.5 172t5 177.5t-5.5 166.5t-16.5 139
t-28.5 95t-40.5 34q-16 -1 -33 -29.5t-32.5 -77t-29.5 -113.5t-24 -138t-15 -150.5t-4 -152t9.5 -141.5t26 -119t45.5 -85t67 -39z" />
    <glyph glyph-name="R" unicode="R" horiz-adv-x="846" 
d="M310 941q-1 -15 -0.5 -44.5t1.5 -57.5q22 47 58.5 71t87.5 19q58 -6 91 -43.5t44.5 -91t2.5 -115.5t-35.5 -117t-69 -95.5t-98.5 -50.5q43 -5 71.5 -32.5t46 -69t26.5 -93.5t13 -106t5 -105.5t3 -92t6.5 -67t16.5 -29.5q10 -2 27 19.5t38 57t43.5 81.5t42.5 92.5t37 90
t26 74.5l32 -10q-14 -35 -32.5 -83.5t-40.5 -100.5t-47.5 -102t-52 -89t-54.5 -61t-56 -17q-39 7 -61.5 35t-35 70t-17 94t-7.5 105.5t-7 105.5t-16 94.5t-33.5 71t-59.5 35.5q-2 -106 -6 -206.5t-16.5 -184.5t-37 -146t-67.5 -92q-17 -12 -32.5 -13.5t-24.5 2t-10.5 11
t8.5 13.5q15 9 26 47.5t19 97t13.5 133.5t9 158t5 169.5t1.5 168v153.5t-1 127q-26 -67 -77 -88.5t-116 -10.5v31q36 -8 67.5 -3.5t56.5 24t43 56.5t26 94q0 19 18.5 26.5t40 7t40 -6t18.5 -11.5zM307 437q36 -2 67.5 27t54 74.5t36 101t14 106t-12.5 89t-42 51.5
q-18 7 -37 -5.5t-35 -35t-27 -50t-13 -49.5q1 -33 0.5 -66t-1.5 -70t-2 -79.5t-2 -93.5z" />
    <glyph glyph-name="S" unicode="S" horiz-adv-x="516" 
d="M154 729q-5 47 6.5 83t34 61.5t54 40t67.5 18.5q34 3 56 -11.5t31.5 -38.5t6 -54t-19.5 -56.5t-45 -46t-71 -23.5q8 -47 26.5 -104.5t41.5 -121t46.5 -131t41.5 -135.5t28.5 -133.5t5.5 -125.5q-4 -54 -24 -94t-51 -65t-70.5 -36t-82.5 -8q-32 2 -60.5 15.5t-48.5 40.5
t-28 70.5t1 105.5q0 3 4 5t9 2t9.5 -2t4.5 -8q-9 -51 -0.5 -84t27 -50t44.5 -19t51 7.5t46.5 30t32.5 48.5q14 44 8.5 110t-23 142.5t-42 157.5t-49 154.5t-43.5 133.5t-24 95q-34 4 -58.5 -6t-39.5 -30t-21.5 -49t-4.5 -63q0 -8 -4 -12.5t-9.5 -5.5t-10.5 2t-6 11
q-3 30 1.5 62.5t21 58.5t48 42.5t82.5 15.5zM272 729q35 5 57.5 20t34.5 34t14.5 39.5t-4 36.5t-20.5 25t-34 5q-25 -5 -37 -25t-15.5 -45t-1.5 -50t6 -40z" />
    <glyph glyph-name="T" unicode="T" horiz-adv-x="692" 
d="M253 854q-34 15 -65.5 27t-59 16.5t-50 -0.5t-37.5 -22q-14 -17 -13 -45.5t12 -52.5l-19 -15q-9 13 -14.5 37.5t-6.5 50t4 48.5t17 35q24 28 64.5 34.5t90.5 -0.5t105.5 -23t108.5 -32t100.5 -28.5t81.5 -12.5q12 0 29 2.5t33.5 11t28 24.5t11.5 43l20 1q6 -42 -3 -77.5
t-27 -61.5t-43 -40.5t-52 -14.5q-38 0 -87 12t-105 39q0 -73 0.5 -171.5t-2.5 -205.5t-11 -215t-23.5 -200.5t-40.5 -162.5t-62 -100q-14 -11 -28.5 -13t-25 2t-13.5 11t7 13q16 10 27.5 50.5t20 102.5t13.5 141t8.5 165t4.5 175.5t1.5 172.5t0 155t-0.5 124z" />
    <glyph glyph-name="U" unicode="U" horiz-adv-x="732" 
d="M418 -204q42 -2 69.5 36.5t45 104t26 152t11 181t1.5 191t-3.5 181t-4 151t0.5 102.5q0 24 15.5 36t33.5 11.5t32 -13t11 -36.5q1 -75 4 -163.5t4 -182.5t-1 -189.5t-11 -183.5t-25.5 -165t-44 -134t-68 -90t-96.5 -34q-66 -1 -110.5 36.5t-72.5 100.5t-41.5 146.5
t-18 174.5t-2 184t7.5 176t9 149t3 104q-26 -67 -77 -88.5t-116 -10.5v31q36 -8 67.5 -3.5t56.5 24t43 56.5t26 94q0 19 20.5 26.5t45.5 7t45.5 -6t20.5 -11.5q-1 -24 -4 -86t-6.5 -146.5t-5.5 -184.5t-1 -201t7 -195.5t18.5 -167.5t33 -118t51.5 -46z" />
    <glyph glyph-name="V" unicode="V" horiz-adv-x="759" 
d="M193 822q-26 -67 -77 -88.5t-116 -10.5v31q36 -8 67.5 -3.5t56.5 24t43 56.5t26 94q0 19 23 28t50.5 8.5t50 -10t22.5 -25.5q-1 -41 -4 -105t-6 -141t-6.5 -164t-6 -175t-3 -172.5t2 -157t8.5 -128.5t17 -87q3 -9 6.5 -11t7.5 -3q9 -2 21.5 26.5t27 78.5t31 117.5
t33.5 145t35 159.5t35.5 162t34 152.5t32 129.5t28.5 95t24 48q12 12 29 16.5t32 1.5t24.5 -14t8.5 -30q-14 -49 -34 -123t-43.5 -162t-49.5 -184.5t-54.5 -189.5t-57 -178t-57 -149.5t-55.5 -104.5t-51 -43q-45 -6 -76 34t-50 109.5t-29 161.5t-13 191t-1.5 197t4.5 179.5
t6 138.5t3 75z" />
    <glyph glyph-name="W" unicode="W" horiz-adv-x="910" 
d="M336 921q0 -16 -3 -59t-6.5 -105.5t-8 -139.5t-7.5 -161t-4.5 -169.5t0 -165.5t7 -149.5t15.5 -120t25.5 -78.5t38.5 -25q24 3 42.5 32.5t33 76t25.5 106t18.5 123t12 127t7.5 117.5t4 94.5t1 59.5q4 15 15.5 21t24.5 4.5t23 -9.5t10 -20q0 -62 -3 -137.5t-5.5 -153.5
t-2.5 -152t5.5 -133t18.5 -96t38 -41q26 4 43 48.5t26.5 117t13 165t3 190.5t-4 195.5t-7 180t-6.5 142.5t-3 84q4 15 22.5 20t39.5 4t37 -6.5t16 -10.5q0 -36 2.5 -105t4.5 -157.5t2 -189.5t-5 -201t-16 -192.5t-32 -163t-53.5 -113t-78.5 -42.5q-25 0 -42 12.5t-28.5 32.5
t-18 45t-9.5 49t-4.5 45t-2.5 33q-12 -64 -29.5 -108.5t-39 -73t-47 -42.5t-52.5 -16q-51 -4 -86.5 33.5t-59.5 103t-37 153t-19 183.5t-6.5 194t1.5 184.5t5 154.5t3 105q-27 -66 -78 -87.5t-115 -10.5v31q36 -8 67.5 -3.5t56.5 24t43 56.5t26 94q0 19 22.5 31t49.5 12.5
t49.5 -10.5t21.5 -37z" />
    <glyph glyph-name="X" unicode="X" horiz-adv-x="643" 
d="M613 818q-11 -29 -28 -79.5t-38 -114t-46.5 -136t-52.5 -146.5q20 -104 33.5 -198t16 -171t-9 -133.5t-41.5 -84.5q-12 -11 -26.5 -12.5t-25.5 2.5t-15 10.5t5 12.5q13 9 16 46.5t-1.5 93.5t-16.5 126.5t-28 146.5q-37 -93 -67 -173t-60 -138t-62.5 -91t-72.5 -33
q-24 2 -36 9t-15 14t1.5 11.5t13.5 1.5q17 -6 43.5 35.5t59.5 116t70.5 174.5t77.5 212q-13 65 -26 138t-24.5 143.5t-20 134t-13.5 108.5q-9 -38 -31.5 -64t-52.5 -40.5t-65 -18.5t-68 2l-7 31q37 -8 75 -3.5t67 24t46 56.5t13 94q-3 13 3.5 21.5t18.5 13t27.5 5.5
t29.5 -1.5t24.5 -8.5t13.5 -14q12 -53 21.5 -111.5t19 -118.5t19 -119t20.5 -112q19 57 39.5 117t39.5 115t34.5 101t26.5 75q8 12 23.5 9t29.5 -14t22 -29t0 -36z" />
    <glyph glyph-name="Y" unicode="Y" horiz-adv-x="645" 
d="M606 941v-145.5t-3.5 -189.5t-11 -214.5t-23.5 -219.5t-41 -205.5t-63.5 -172.5t-92 -120t-124.5 -48q-54 -2 -83.5 36t-35.5 96.5t9 126.5t49 126l14 -10q-23 -43 -37.5 -96t-13.5 -99t19 -77.5t59 -32.5q39 -1 70 26t56 74.5t43.5 112.5t32.5 140.5t23.5 159
t15.5 167.5q-49 -25 -88 -20.5t-69.5 31.5t-52 73t-36 103.5t-21.5 124t-8 134.5q-26 -67 -77 -88.5t-116 -10.5v31q36 -8 67.5 -3.5t56.5 24t43 56.5t26 94q0 26 19.5 38t43 13t42.5 -8.5t19 -25.5v-123.5t3 -138.5t11.5 -131.5t25.5 -102.5t44.5 -51.5t69.5 21.5
q5 84 8 163.5t4 149.5t1 126.5v92.5q1 15 20 22t42 5.5t41.5 -10.5t18.5 -24z" />
    <glyph glyph-name="Z" unicode="Z" horiz-adv-x="552" 
d="M170 -59q2 -2 10.5 -9.5t9.5 -11.5q-28 -29 -42.5 -72t-13 -83t21 -68t59.5 -27q37 1 65.5 31t47 78t28.5 109t11 125.5t-7 126.5t-24 111t-40 80.5t-56 35.5q-11 1 -26 1t-30.5 1t-28 5t-18 13.5t-1.5 26.5t23 44q14 19 34.5 50t45 67.5t51 75.5t51 75.5t46 67.5
t36.5 51q-16 1 -52 1.5t-80.5 -0.5t-92 -2t-84.5 -2q-20 -1 -28.5 -14.5t-14 -29.5t-12.5 -28.5t-22 -10.5q-15 1 -24 16.5t-11.5 37.5t0.5 47t12.5 46.5t25.5 35.5t39 13q84 -2 179 -6.5t192 -6.5q24 0 41 -10t25 -25t8 -33t-9 -34t-28.5 -45t-43.5 -64t-51.5 -73
t-51.5 -72t-43.5 -60.5t-28.5 -38.5q57 -7 99.5 -48.5t70.5 -105.5t41 -143t11 -160.5t-19 -159t-49 -137.5t-80 -96t-111 -35q-47 1 -75 22.5t-41 54.5t-13 73t9 77.5t24.5 67.5t34.5 44z" />
    <glyph glyph-name="bracketleft" unicode="[" horiz-adv-x="409" 
d="M174 837q15 6 43.5 7t58.5 0t55 -3.5t34 -3.5q16 -4 11 -15.5t-14 -24.5q-24 3 -47.5 5t-45 2t-39 -1.5t-27.5 -5.5q-13 -5 -26 -44.5t-25 -101.5t-22 -140t-17.5 -160t-11.5 -162t-3.5 -146t6 -111t17.5 -58q13 -14 32.5 -17.5t43.5 -2t51.5 6t55.5 7.5q12 -11 10 -26
t-16 -20q-12 -4 -43 -7.5t-67.5 -4t-71 3.5t-51.5 15q-26 16 -40.5 66t-20.5 120.5t-3.5 156t12.5 173.5t26 172t36.5 151.5t45.5 113t53 55.5z" />
    <glyph glyph-name="backslash" unicode="\" horiz-adv-x="452" 
d="M416 -212q1 -11 -9 -20t-23.5 -13t-27.5 -1t-20 17q-13 34 -36 93t-52 134t-61 161t-64 175t-61.5 176t-52.5 164q-8 20 1 33.5t24 16.5t32 -7t25 -38q20 -59 46 -133t55.5 -155t60 -165t60 -163.5t56 -150t47.5 -124.5z" />
    <glyph glyph-name="bracketright" unicode="]" 
d="M203 -181q-15 -6 -43.5 -7.5t-58.5 0t-55 3.5t-34 4q-8 1 -10.5 5.5t-1 9.5t5.5 11.5t9 12.5q24 -3 47.5 -5t44.5 -2t38.5 1.5t28.5 5.5q13 5 26 44.5t25 101.5t22 140.5t17.5 160.5t11.5 162t3.5 145.5t-6 111t-17.5 57.5q-13 14 -33 18t-44 2.5t-51 -6t-55 -7.5
q-12 10 -10 25.5t16 20.5q12 4 43 7t67.5 3.5t71 -3.5t51.5 -15q25 -16 40 -66t21 -120.5t3.5 -156t-12.5 -173t-26 -171.5t-36.5 -151.5t-45.5 -113t-53 -55.5z" />
    <glyph glyph-name="asciicircum" unicode="^" horiz-adv-x="273" 
d="M127 687q-7 -14 -15 -40t-17 -53t-18 -50t-18 -31t-17.5 -10t-16.5 0.5t-14.5 7.5t-10.5 10q27 19 42.5 54t26.5 69.5t23 60t33 25.5q1 0 1 -1q1 1 2 1q21 0 33 -25.5t23 -60t26.5 -69.5t42.5 -54q-5 -5 -11 -10t-14 -7.5t-16.5 -0.5t-17.5 10t-18 31t-17.5 50t-16.5 53
t-15 40z" />
    <glyph glyph-name="underscore" unicode="_" horiz-adv-x="558" 
d="M537 -108q-22 1 -66 0.5t-97 -1t-110.5 -0.5t-107.5 0.5t-86 2t-47 5.5q-14 5 -18 17.5t-5 38.5h60h95t111 -0.5t108.5 -1t87.5 -2.5t48 -4q18 -8 24 -24.5t3 -30.5z" />
    <glyph glyph-name="grave" unicode="`" horiz-adv-x="151" 
d="M8 653q-10 7 -7 16.5t13 16.5t23.5 9t25.5 -5q12 -6 23 -31.5t17 -56.5t4 -59.5t-15 -41.5q-7 19 -16.5 42.5t-20.5 45.5t-23 39.5t-24 24.5z" />
    <glyph glyph-name="a" unicode="a" horiz-adv-x="545" 
d="M587 309q-11 -24 -26 -56t-34 -66t-40.5 -67.5t-44.5 -60t-46 -43t-45 -17.5q-32 -1 -51.5 12.5t-30.5 41t-15.5 69t-5.5 96.5q-9 -18 -24 -37t-33 -35t-38.5 -26.5t-40.5 -10.5q-47 0 -74.5 27t-37 66.5t-1.5 86t32.5 87t65 68.5t95.5 30q22 1 42 -2t36.5 -8.5t28 -11.5
t16.5 -12q4 -5 4.5 -11.5t-1.5 -11.5t-6.5 -7t-8.5 2q-3 2 -10.5 7.5t-17.5 10t-22 6t-25 -3.5q-26 -11 -45.5 -36.5t-33.5 -57.5t-21.5 -66t-10 -62.5t1.5 -47.5t13 -19q13 0 31.5 14.5t38.5 40t39 59t31 71.5q4 11 4.5 16.5t2.5 10.5q7 17 23.5 23.5t33.5 4t30.5 -12
t14.5 -24.5q0 -4 -3.5 -28.5t-9 -58t-10 -72t-6 -71t1 -54t13.5 -21.5q12 -1 28.5 14.5t35.5 40t38 55.5t36.5 62t31 58.5t21.5 44.5z" />
    <glyph glyph-name="b" unicode="b" horiz-adv-x="547" 
d="M353 196q-4 -27 -17 -65.5t-35.5 -74t-53.5 -60.5t-70 -24q-26 1 -40 17t-17 40.5t4 53.5t22 56.5t38.5 49.5t52.5 31q2 10 5.5 36t3.5 52.5t-5.5 46.5t-20.5 18t-32 -21.5t-32.5 -44t-27.5 -49.5t-16 -38q-1 -3 -0.5 -18t-1.5 -29q-1 -7 -17 -13t-35 -7.5t-35.5 3.5
t-17.5 20q-3 27 -4.5 76.5t0 112t6 133.5t13.5 141.5t22 136t32 116.5t44 83t57 36q45 6 67 -23.5t26 -80t-7.5 -114.5t-33.5 -129t-51 -123t-61 -95q-3 -2 -4.5 -26t-2 -53.5t-0.5 -56.5t1 -34q6 19 18 40.5t28 40t35.5 31t42.5 14.5q39 -1 63.5 -19t38.5 -44t18 -56.5
t1 -56.5q13 0 42 2.5t60.5 12t60 28t41.5 49.5l30 -6q-14 -34 -42.5 -56t-62.5 -35t-69 -18.5t-61 -6.5zM205 970q-12 4 -22 -14t-18.5 -50.5t-15.5 -75.5t-13 -88q-13 -106 -22 -245q15 14 34 52.5t37 88.5t32.5 105t19.5 103t-1.5 82t-30.5 42zM170 2q8 2 15.5 17
t14.5 35.5t13 44t10.5 43.5t6.5 33l2 13q-21 -6 -37 -23t-27 -39t-16.5 -45.5t-5.5 -42t6 -29t18 -7.5z" />
    <glyph glyph-name="c" unicode="c" horiz-adv-x="391" 
d="M186 42q24 -3 56 25.5t63.5 72t59 91.5t42.5 84q1 0 6.5 -0.5t11.5 -1.5q7 -1 15 -2q-19 -43 -47 -95.5t-62.5 -98.5t-73.5 -78t-80 -33q-44 -2 -77 18t-55 54t-33 78t-12 91t8.5 93t29 83.5t48.5 62.5t67 30q41 6 68.5 -3.5t44 -26t23 -37t5.5 -36.5q0 -3 -5.5 -4
t-11.5 -1t-11 1t-5 4q2 10 -3.5 23t-15.5 21.5t-24 10t-30 -10.5q-13 -10 -26 -44t-22.5 -78.5t-13.5 -94.5t0 -93t18 -72t42 -33z" />
    <glyph glyph-name="d" unicode="d" horiz-adv-x="605" 
d="M373 449q-1 0 -2 -22t-2 -58t-1.5 -82t0.5 -94t3.5 -94t7.5 -82.5t12.5 -59.5t18.5 -25q13 -2 31.5 21.5t39 61t42 84t40 90.5t33 79.5t21.5 51.5l32 -4q-9 -21 -25 -61.5t-37 -89.5t-45.5 -100.5t-50.5 -94t-52 -71t-50 -30.5q-29 -4 -49 15t-34 50.5t-22.5 71
t-12.5 76.5t-6 66t-2 41q-7 -22 -18 -45t-26 -43t-34.5 -33.5t-43.5 -15.5q-47 -5 -79.5 24t-48.5 74.5t-16 100t19 102t56.5 79t95.5 31.5q24 0 41.5 -7t28.5 -15q13 -10 23 -22q0 27 4 80t12 118t21 133.5t32 126t44.5 96t58.5 42.5q45 5 67 -24t26 -79.5t-7.5 -115
t-33.5 -129t-51 -123t-61 -95.5zM463 973q-12 4 -22 -14t-18.5 -50.5t-15.5 -75.5t-13 -88q-13 -106 -22 -244q15 14 34 52.5t37 88t32.5 104.5t19.5 103t-1.5 82t-30.5 42zM170 435q-18 -3 -32 -30t-22.5 -66.5t-11 -84.5t2 -82.5t16 -61.5t31.5 -22q19 2 37.5 27.5
t33 57.5t23.5 62t9 42q0 7 1 14t1 16.5t-0.5 25t-1.5 39.5q-1 8 -9 19.5t-20.5 22t-27.5 17t-30 4.5z" />
    <glyph glyph-name="e" unicode="e" horiz-adv-x="433" 
d="M474 312q-7 -19 -23.5 -47t-39 -59t-50.5 -62t-58 -56t-61.5 -40.5t-60.5 -16.5q-55 -2 -93 24.5t-60 68t-27.5 92.5t4.5 99t36 87.5t67 57.5q16 7 42 11t51.5 2t46.5 -12t28 -30q7 -23 -5 -42t-33.5 -34t-48.5 -25.5t-49 -16.5q-10 -39 -11 -80.5t6 -76t20.5 -58.5
t33.5 -27q28 -5 64.5 19t73 62t67.5 82.5t49 80.5zM152 352q19 1 37 9.5t31.5 19t20.5 22t4 19.5q-3 7 -9 12t-14.5 6.5t-17.5 -1.5t-16 -12q-8 -9 -18 -29.5t-18 -45.5z" />
    <glyph glyph-name="f" unicode="f" horiz-adv-x="429" 
d="M289 621q0 -4 -4.5 -7.5t-10 -4t-9 2.5t-2.5 11q6 51 -9.5 74t-40.5 6q-23 -16 -40 -57t-29 -95.5t-20 -116t-11 -118.5q14 -15 39.5 -30t57 -27t66 -17.5t66.5 -0.5t59 22.5t43 53.5l31 -5q-19 -43 -48.5 -66t-64 -31t-71.5 -3.5t-71.5 16t-64 27.5t-49.5 32
q-1 -1 -1 -3v-6q42 -35 69 -94.5t39.5 -129t12.5 -141t-12 -130.5t-35 -96.5t-54 -39.5q-29 -2 -51 23.5t-38 72t-25.5 110t-13.5 138t-1.5 156t9.5 164.5q22 235 80 343t143 100q24 -2 37.5 -19t20 -39t6.5 -43t-3 -32zM99 243q-3 -13 -4 -58.5t0 -106t4 -128t9 -123.5
t13.5 -92t18.5 -35q18 4 31 38t19 85.5t4.5 113t-12 120.5t-31 108.5t-52.5 77.5z" />
    <glyph glyph-name="g" unicode="g" horiz-adv-x="607" 
d="M615 316h32q-17 -42 -37 -95t-50.5 -102t-75.5 -86.5t-111 -49.5q-1 -29 -4.5 -75t-12 -98t-24 -104.5t-40.5 -94t-61 -67.5t-86 -25q-38 1 -59.5 22t-28.5 55.5t-2 78t19 89t35 89t46 77t52 54t53 19.5q2 61 2 117.5v108.5q-11 -25 -27.5 -52.5t-38.5 -49.5t-47.5 -35
t-54.5 -10q-30 3 -51.5 26t-33.5 58.5t-13 78.5t9.5 84.5t33 78t58 59t85 27t113.5 -18.5q3 -1 3.5 -5.5t-1.5 -9t-5 -8t-6 -2.5q-46 18 -80 2t-56.5 -52t-35 -83t-15 -90.5t4 -75t21.5 -35.5q9 -3 24.5 6.5t34.5 31.5t39.5 55.5t40.5 79.5q0 30 1.5 49.5t3.5 44.5
q1 12 19 21t39 10t38.5 -6.5t18.5 -28.5q0 -22 -0.5 -67.5t-2 -99.5t-3 -107t-2.5 -90q36 3 65.5 20.5t53 44t42.5 59t33.5 65t25.5 62t19 50.5zM259 -26q-33 -7 -62.5 -39.5t-53 -78t-38.5 -97t-18 -95.5t6.5 -74t36.5 -32q25 -2 44 24t33.5 67t24 91.5t16 97.5t9 84
t2.5 52z" />
    <glyph glyph-name="h" unicode="h" horiz-adv-x="626" 
d="M110 307v-36.5v-40v-35.5v-22q-1 -7 -17 -13t-35 -7.5t-35.5 3.5t-17.5 20q-3 27 -4.5 76.5t0 112t6 133.5t13.5 141.5t22 136t32 116.5t44 83t57 36q45 6 67 -23.5t26 -80t-7.5 -114.5t-33.5 -129t-51 -123t-61 -95q-4 -3 -4 -70q15 26 37.5 46.5t48.5 32t54.5 13.5
t55.5 -10q28 -12 44.5 -43t23.5 -73.5t7.5 -93t-2.5 -101t-7.5 -97t-6.5 -82t0.5 -55.5t12.5 -18q15 0 36 21.5t44 57t47.5 80.5t48.5 92t45.5 92.5t38.5 81.5l29 -8q-12 -27 -35.5 -77t-51.5 -106.5t-58 -111t-56 -91.5q-23 -32 -48.5 -52t-50.5 -22.5t-47 14.5t-36 60
q-13 38 -16.5 89t-2 105t5.5 107t4 96t-6 71.5t-23 33.5q-23 6 -46 -6t-41.5 -32.5t-32 -43.5t-17.5 -39zM205 970q-12 4 -22 -14t-18.5 -50.5t-15.5 -75.5t-13 -88q-13 -106 -22 -245q15 14 34 52.5t37 88.5t32.5 105t19.5 103t-1.5 82t-30.5 42z" />
    <glyph glyph-name="i" unicode="i" horiz-adv-x="298" 
d="M3 362q6 26 24.5 36t37.5 8.5t32.5 -12.5t9.5 -27q-1 -9 -2.5 -34t-3 -58.5t-2 -70.5t1 -69.5t5.5 -56t12 -29.5q10 -5 27.5 4t42 39.5t56 85.5t68.5 142l28 -10q-27 -63 -57 -120.5t-62.5 -100.5t-66.5 -67t-68 -20q-26 3 -43 21.5t-27.5 47t-15.5 65t-5.5 76t2 78
t6.5 72.5zM101 526q-5 -2 -18.5 -5.5t-30.5 -3.5q-15 0 -29 4t-17 8q-5 8 -2 20t11 23t21 19t27 7q16 -1 26.5 -10.5t15 -21.5t3.5 -23.5t-7 -16.5z" />
    <glyph glyph-name="j" unicode="j" horiz-adv-x="544" 
d="M313 -17q-1 -25 -5 -69t-12.5 -94.5t-24 -103.5t-39 -96t-57 -71.5t-78.5 -30.5q-48 -3 -71 30.5t-25.5 85t12.5 113t42.5 116.5t64.5 94t79 46q6 117 4 217.5t5 178.5q1 12 19 21t39 10t39 -6.5t18 -28.5v-42t-0.5 -61t-1.5 -72.5t-2.5 -76t-2.5 -71.5t-2 -58
q48 8 86.5 40t68.5 76.5t53 94.5t40 93l31 -5q-17 -43 -41 -96.5t-58 -102.5t-78.5 -85.5t-102.5 -45.5zM198 -27q-37 -11 -67.5 -49t-52.5 -87.5t-34 -103t-11.5 -96t14.5 -65.5t43 -12q21 8 37 38t28 71t20.5 88.5t13.5 90.5t7 77t2 48zM312 526q-5 -2 -18.5 -5.5
t-30.5 -3.5q-15 0 -29 4t-17 8q-5 8 -2 20t11 23t21 19t27 7q16 -1 26.5 -10.5t15 -21.5t3.5 -23.5t-7 -16.5z" />
    <glyph glyph-name="k" unicode="k" horiz-adv-x="549" 
d="M112 456q0 -1 -1 -12t-1.5 -25.5t-0.5 -29.5t1 -24q4 7 15 22t25.5 32t31.5 34t34 29q30 21 57.5 21t44 -15t15.5 -41t-28 -57q-9 -11 -23.5 -22t-30 -21.5t-30.5 -18t-26 -10.5q57 2 89 -22.5t47.5 -62t19 -83t3 -86t-0.5 -70.5t9 -36q10 -7 25 7.5t32.5 43.5t37 68.5
t38 82t35.5 84t30 73.5l31 -4q-27 -65 -57.5 -136.5t-61.5 -132t-61.5 -101.5t-58.5 -45q-36 -7 -56 9.5t-30 47t-13 71.5t-5.5 83t-8 80.5t-19.5 64t-40 34t-70 -8.5q0 -34 0.5 -63t-0.5 -43q-1 -7 -17 -13t-35 -7.5t-35.5 3.5t-17.5 20q-3 27 -4.5 76.5t0 112t6 133.5
t13.5 141.5t22 136t32 116.5t44 83t57 36q45 6 66 -26t23.5 -85t-10.5 -119.5t-35 -130t-50.5 -116.5t-56.5 -78zM205 970q-12 4 -22 -14t-18.5 -50.5t-15.5 -75.5t-13 -88q-13 -106 -22 -245q15 14 34 52.5t37 88.5t32.5 105t19.5 103t-1.5 82t-30.5 42zM225 456
q-17 -12 -34.5 -31.5t-32.5 -39.5t-26.5 -37t-15.5 -24q24 3 50 12t49.5 21t42 25.5t28.5 25.5q15 18 15.5 34t-9 24.5t-27.5 7t-40 -17.5z" />
    <glyph glyph-name="l" unicode="l" horiz-adv-x="384" 
d="M130 446l-1 -19.5t-1.5 -51t-0.5 -72t2 -82t5.5 -81.5t10 -71t15.5 -50t23 -18q16 1 35.5 17t39 42t39.5 58.5t38.5 67.5t34.5 69t28 62l30 -6q-15 -32 -33 -70.5t-38.5 -78.5t-44 -77.5t-49.5 -66.5t-54.5 -46t-59.5 -16q-51 0 -82.5 44t-48 117t-18.5 166.5t7 191.5
t27.5 192.5t43 169.5t53.5 122.5t60 51.5q45 6 67 -23.5t26 -80t-8 -114.5t-33.5 -129t-51 -123t-61.5 -95zM221 970q-12 4 -22.5 -14t-19 -50.5t-15.5 -75.5t-13 -88q-13 -106 -21 -245q15 14 34 52.5t37 88.5t32.5 105t19.5 103t-1.5 82t-30.5 42z" />
    <glyph glyph-name="m" unicode="m" horiz-adv-x="759" 
d="M206 459q-16 -1 -33 -20.5t-32 -48t-25 -61t-13 -57.5q0 -3 -0.5 -15.5t-1 -26.5t-1 -26t-1.5 -15q-3 -11 -15.5 -18t-27.5 -8t-29 4t-20 17q-3 7 -5 27.5t-3.5 48.5t-1.5 60.5t0.5 62t2 53.5t3.5 36q4 26 21.5 36.5t36.5 8t34 -15.5t14 -34q-1 -9 -1.5 -23t-1 -29.5
t-1 -29.5t-1.5 -22q4 14 12.5 34.5t22 40t32.5 33.5t44 16q30 2 49.5 -14.5t30.5 -44t15 -62.5t4.5 -70.5t-1 -68t-2.5 -54.5q4 16 10 40.5t14 51.5t19.5 53.5t26.5 48t34 35t43 12.5q32 -1 51.5 -22t29 -55t11.5 -78t-0.5 -89.5t-7.5 -89.5t-9.5 -79t-6 -57t3.5 -23
q11 -4 30.5 18t43 59t49.5 83t49 91.5t41 85t27 61.5l32 -3q-13 -26 -32.5 -68t-43.5 -90t-51 -97t-54 -89t-53.5 -66t-49.5 -27q-37 -3 -57.5 16.5t-29.5 53.5t-8.5 78.5t5.5 91.5t12 92.5t12 82t4.5 60t-10.5 26.5q-18 1 -33 -16.5t-27 -45.5t-22 -62t-19 -67.5
t-16.5 -61.5t-14.5 -43q-8 -17 -21 -24t-26.5 -4.5t-25 16t-15.5 38.5q-4 24 -4 60t2 74.5t4 77.5t1 69.5t-6 49t-17 18.5z" />
    <glyph glyph-name="n" unicode="n" horiz-adv-x="526" 
d="M222 404q-16 -1 -33.5 -10.5t-33 -25t-28 -35t-18.5 -40.5q-1 -3 -2 -19.5t-2 -35.5t-1.5 -35t-1.5 -19q-3 -11 -15.5 -18t-28.5 -8t-30.5 4t-20.5 17q-3 7 -5 28t-2 49.5t0.5 61.5t1.5 63t3 54.5t4 36.5q4 26 21.5 36.5t36.5 8t33.5 -15.5t13.5 -34v-27.5t-1 -18.5
t-1.5 -21l-1.5 -36q21 25 51 47.5t77 23.5q30 0 49 -19t29 -51t13 -73t2.5 -84t-2.5 -85t-3.5 -75t0 -54.5t9.5 -23.5q8 -3 24.5 18.5t37.5 56.5t43.5 77.5t42.5 82.5t35.5 71.5t20.5 44.5l32 -4q-8 -16 -24.5 -52.5t-38.5 -82t-48 -93.5t-53 -88t-53 -65t-48 -24
q-31 3 -47.5 25.5t-24 57.5t-7.5 79.5t3 90t7 89t5.5 77t-3 54t-17.5 19.5z" />
    <glyph glyph-name="o" unicode="o" horiz-adv-x="452" 
d="M287 198q-29 8 -50 33t-34 57t-16.5 67.5t2.5 66t21.5 52t42.5 25.5q30 0 48 -16t27 -42t10.5 -58.5t-1 -64t-7.5 -58.5t-9 -43q10 -4 28 -1t38.5 14.5t41 32t35.5 52.5l31 -4q-22 -44 -48 -70t-51.5 -38.5t-47.5 -14.5t-36 1q-12 -41 -28 -82t-42 -71q-19 -24 -44.5 -37
t-52.5 -14.5t-52.5 9t-43.5 34.5q-23 29 -36.5 72.5t-16.5 91t4 94.5t26 84.5t49 60t73 20.5q17 -1 27 -5.5t9 -4.5q4 -1 4 -11t-7 -11q-25 -4 -41.5 -34t-26 -73t-11 -92.5t4 -92.5t19 -73t33.5 -33q22 -2 42 14.5t36.5 42.5t29 58.5t20.5 61.5zM295 226q15 53 17 100.5
t-5 82t-21.5 52t-32.5 11.5q-15 -5 -24 -22.5t-12.5 -42t-0.5 -53t12.5 -54.5t26 -46t40.5 -28z" />
    <glyph glyph-name="p" unicode="p" horiz-adv-x="697" 
d="M519 149q-5 -24 -17.5 -55t-33.5 -58.5t-51.5 -46t-72.5 -17.5q-39 1 -52.5 28.5t-4 63t39.5 68.5t77 46q1 7 3 24t3.5 39.5t2 46t-2 43t-8 32t-15.5 12.5q-18 0 -35.5 -18.5t-32.5 -44t-26 -51.5t-14 -41q-4 -34 -7.5 -95.5t-10 -134t-17.5 -148.5t-30 -139t-49 -105.5
t-73 -47.5q-45 -6 -66.5 23.5t-25 80t9 115t35 129t53 123t62.5 95.5q2 1 3.5 20.5t3 48.5t2.5 63.5t1.5 66.5t1 56.5t1.5 34.5q3 21 21 30.5t37.5 9t34.5 -11t13 -28.5q1 -26 0 -56.5t-2 -62.5q6 16 18 36t27.5 37.5t35 29.5t41.5 12q32 0 56.5 -20t40 -51.5t22 -71.5
t3.5 -80q25 -3 54 8.5t56 31t49 46t33 53.5l30 -7q-17 -39 -42.5 -69t-56 -50.5t-63 -31.5t-62.5 -11zM63 -408q12 -4 22.5 14t19.5 50.5t16.5 75.5t13.5 88q14 106 25 245q-15 -15 -34.5 -53t-38.5 -88t-34 -105t-20.5 -103t0.5 -82t30 -42zM337 2q11 3 22.5 26.5
t20.5 49.5t14 47.5l5 21.5q-32 -9 -52.5 -35t-28.5 -52t-3.5 -44.5t22.5 -13.5z" />
    <glyph glyph-name="q" unicode="q" horiz-adv-x="594" 
d="M323 -17q0 -4 -1 -7q23 -7 38.5 -31.5t25 -60t13 -78t1 -86t-11 -84.5t-22 -73t-32.5 -51.5t-42 -19.5q-31 -1 -50.5 23t-29.5 64.5t-12 94t0.5 111.5t9 117.5t13.5 113t13 96t9 67.5q-13 -17 -30.5 -37.5t-37 -39.5t-39 -33t-35.5 -18q-35 -9 -59.5 7.5t-38 49t-16 76
t7 88t31 84t56 64.5t81.5 30.5t107 -18.5q3 -2 3 -6t-2 -8.5t-5 -8t-6 -3.5q-34 12 -61.5 -6.5t-47.5 -54t-33 -81t-18.5 -85.5t-3 -67.5t12.5 -28.5q8 0 25 14t37.5 36.5t41.5 50.5t37 56q4 18 7 28t4.5 17.5t3 14.5t3.5 20q2 12 19 22t36.5 12.5t34.5 -4t14 -27.5
q-2 -22 -7 -59t-12 -80t-14 -87.5t-12 -81.5q29 2 58.5 19.5t56.5 44t52 59t45.5 65t36 63t24.5 51.5l30 -6q-5 -13 -18.5 -40t-34 -61.5t-47.5 -71.5t-59.5 -69.5t-70.5 -56t-79 -29.5zM321 -56q-2 0 -6 -29.5t-9 -73.5t-8.5 -95.5t-4.5 -95.5t3 -73.5t14 -28.5
q16 0 29 27.5t20.5 70t9.5 92t-2 93.5t-15.5 75.5t-30.5 37.5z" />
    <glyph glyph-name="r" unicode="r" horiz-adv-x="423" 
d="M44 324q0 -8 12 -14t30 -12l39 -13t39 -15t29 -19t10 -26q-2 -19 -5.5 -45.5t-7 -56t-6 -58.5t-2 -52t5 -38t15.5 -16q19 -2 41.5 17.5t45.5 52t45.5 73t42 81t35 76.5t24.5 59l29 -9q-4 -12 -18 -47t-35 -79.5t-47.5 -92.5t-56 -86.5t-60.5 -61.5t-61 -17q-28 6 -46 23
t-28 42t-13.5 55.5t-3 63t4 64.5t7.5 60q-2 8 -15 15.5t-30 15t-34 17t-27 21.5q-5 18 -4 51t7.5 71t18 76.5t27 67t34 43.5t40.5 6q14 -6 14.5 -26.5t-7 -49t-21 -61.5t-27 -63.5t-25.5 -55.5t-16 -37z" />
    <glyph glyph-name="s" unicode="s" horiz-adv-x="377" 
d="M239 119q14 -20 20.5 -57.5t-2 -76t-36 -70t-79.5 -39.5q-34 -5 -58 6t-38 32t-17 48.5t6 55.5t31.5 53t59.5 41q-15 25 -35.5 51t-40 51t-35.5 48t-21 43q-7 24 -4 52t15.5 51t34 38t52.5 14q9 0 22 -3.5t25 -12t21.5 -22t11.5 -33.5q0 -2 -3 -4.5t-7.5 -5t-9.5 -3
t-8 1.5q-3 21 -12 28t-19 4.5t-19 -13t-12 -25.5q-3 -16 13 -42.5t39.5 -58t49 -65t42.5 -61.5q25 7 49.5 25t46 41t39 50t29.5 54l31 -4q-11 -24 -29 -54t-41.5 -58t-51.5 -50t-60 -30zM138 86q-43 -22 -61 -53.5t-17 -59t18.5 -44t46.5 -7.5q23 7 30.5 29.5t6 48t-9 50
t-14.5 36.5z" />
    <glyph glyph-name="t" unicode="t" horiz-adv-x="350" 
d="M144 44q21 -4 48 14t57 54t60.5 87.5t58.5 116.5l31 -5q-33 -73 -67.5 -132.5t-70.5 -100.5t-74 -60.5t-77 -12.5q-38 7 -61 38t-35 78t-13.5 105t3.5 120t14.5 122.5t19.5 111.5h-37v33h43q7 32 11 51.5t8 36.5q6 22 27.5 32t44 7.5t37.5 -18.5t9 -46q-1 -5 -5 -23
t-9 -39h19.5t9.5 0.5t10 0.5h21v-33h-21.5t-11.5 -0.5t-11 -0.5h-21q-9 -42 -18 -98.5t-16 -116t-11.5 -118t-3.5 -104t8 -73.5t23 -27z" />
    <glyph glyph-name="u" unicode="u" horiz-adv-x="497" 
d="M230 194q-27 -41 -56.5 -66t-55.5 -26q-45 -1 -71 20.5t-38 55.5t-12 75t8.5 78t23 65t30.5 35q12 6 30.5 5t35.5 -4.5t28.5 -9.5t9.5 -11q-12 -16 -22.5 -41.5t-17.5 -55t-11 -60t-3 -55.5t7.5 -41.5t19.5 -19.5q8 -2 21.5 9.5t27.5 28.5t26.5 36t18.5 33q2 9 3.5 23.5
t3.5 29.5t5 28t8 19q7 8 23.5 10.5t32.5 -1t27 -12.5t9 -23q-2 -12 -5 -37t-5 -55.5t-3.5 -63t-1 -59.5t3.5 -44t9 -16q11 -1 27.5 15.5t34.5 43t36 58.5t33.5 63t26.5 56t15 37l29 -6q-5 -13 -17 -40.5t-29.5 -61.5t-38.5 -70.5t-43.5 -66.5t-45.5 -48.5t-43 -17.5
q-26 1 -43 20.5t-28 48t-16.5 61t-7.5 58.5z" />
    <glyph glyph-name="v" unicode="v" horiz-adv-x="420" 
d="M105 30q-38 2 -60 27.5t-33 64t-13 86.5t0.5 95t8 90t8.5 71q4 10 21 12.5t35.5 -1.5t32.5 -13t12 -23q-2 -12 -5.5 -42.5t-6.5 -70.5t-5 -83t-1 -80t5.5 -62.5t14.5 -29.5q8 -3 22.5 4.5t32 26.5t37.5 48.5t38 70.5q-23 15 -39 42t-25 58.5t-10 64.5t8 61t28.5 47.5
t51.5 24.5q31 5 47 -10.5t21 -42.5t1.5 -61t-11.5 -67t-17.5 -61t-16.5 -42q13 -6 34 -5t42.5 10t41 26.5t30.5 46.5l30 -6q-12 -31 -33 -53t-46.5 -34.5t-53.5 -16t-55 3.5q-16 -38 -37 -71t-43.5 -57t-46 -37.5t-45.5 -11.5zM262 251q5 11 12.5 34t14.5 50t11.5 55.5
t4 51.5t-8.5 37t-26 13q-36 -3 -51.5 -35t-14 -73t16.5 -79.5t41 -53.5z" />
    <glyph glyph-name="w" unicode="w" horiz-adv-x="648" 
d="M206 301q1 13 15.5 20t32 7.5t32 -6.5t15.5 -23q-1 -15 0 -47t3 -71t6.5 -81t10.5 -76t14 -55.5t18 -20.5q17 1 34.5 21t33 51.5t28.5 71t22 80.5q-27 4 -48 28.5t-34.5 58.5t-18 73t1 74t21.5 61.5t45 33.5q31 8 49.5 -6t27.5 -41.5t10.5 -64t-1 -72.5t-7 -67.5
t-7.5 -48.5q22 -1 46.5 10t47 28.5t40.5 38.5t27 39l30 -6q-11 -23 -31 -48t-46 -46t-56.5 -34.5t-62.5 -13.5q-8 -34 -21 -78.5t-32.5 -85t-47.5 -68t-66 -26.5q-33 1 -57 21t-39.5 53t-23 76t-7.5 90q-2 -17 -7.5 -37.5t-14.5 -39.5t-23 -32.5t-34 -14.5q-45 2 -73 32
t-42.5 75.5t-17 99t3 102t18 85.5t27.5 49q10 8 28.5 8t35.5 -4.5t29 -11.5t11 -12q-12 -16 -21.5 -51t-15 -78t-7 -89t1.5 -84t11 -62.5t21 -25.5q8 -1 15.5 14t14.5 38t12.5 51.5t10 55.5t7.5 49t4 33zM477 205q1 8 5 32.5t7 55.5t4.5 64t-2 59.5t-13.5 41.5t-29 10
q-22 -6 -33 -27.5t-13.5 -49.5t2.5 -60t15.5 -59t25 -46t31.5 -21z" />
    <glyph glyph-name="x" unicode="x" horiz-adv-x="470" 
d="M244 -6q11 0 30.5 17t42.5 45t48 63t48 71t42 69.5t30 57.5l30 -6q-8 -17 -26 -50t-42.5 -73t-53.5 -82t-58.5 -76.5t-58 -56.5t-51.5 -22q-28 0 -52 15.5t-45 40t-39 55t-34 61.5q-26 -33 -42 -76.5t-15 -91.5l-30 1q-1 60 20.5 110t54.5 88q-17 44 -27 89.5t-14 83.5
t-1.5 66t12.5 38q8 8 26.5 8t37 -5t32 -12t13.5 -12q-5 -9 -6 -26.5t0.5 -40.5t5 -50t9.5 -55q19 16 41.5 34.5t42 39.5t32 44.5t12.5 48.5l30 -2q0 -31 -15 -58t-37.5 -51t-49 -45.5t-49.5 -41.5q-1 -3 4 -19.5t14 -40t20.5 -50.5t24 -50t23.5 -38t20 -15z" />
    <glyph glyph-name="y" unicode="y" horiz-adv-x="605" 
d="M385 -26q-1 -28 -7 -76t-17.5 -102.5t-29.5 -108.5t-45 -95.5t-63 -63t-82 -9.5q-41 10 -55.5 47.5t-9.5 87.5t25.5 106.5t48.5 106t60.5 85t61.5 43.5q1 21 2 48t1.5 55.5t0.5 54.5v45q-5 -14 -18 -35.5t-31.5 -41.5t-41.5 -34.5t-48 -15.5q-47 -2 -76 23t-43.5 66
t-16.5 90.5t5 96.5t22.5 84.5t34.5 54.5q10 9 28.5 8.5t36 -5.5t29.5 -12.5t10 -12.5q-12 -18 -24 -51.5t-21 -74t-14 -83t-3.5 -77.5t10.5 -57.5t28 -23.5q12 0 31 13.5t39 37.5t37.5 56t25.5 68q0 11 0.5 29t1.5 29q1 12 19.5 21t40 10t40 -7t18.5 -29q1 -22 0.5 -61
t-2 -84t-3.5 -91.5t-3 -83.5q24 4 48 22.5t46 45.5t42 60t37 66t30.5 63t23.5 52l32 -3l-5 -10q-20 -40 -45.5 -94t-57.5 -104t-70.5 -87t-83.5 -42zM271 -36q-21 -9 -46 -40.5t-48.5 -74t-42 -90.5t-25.5 -89.5t1.5 -71.5t37.5 -37q22 -6 39.5 18t31.5 63.5t24 89.5
t16 96.5t9 83.5t3 52z" />
    <glyph glyph-name="z" unicode="z" horiz-adv-x="582" 
d="M234 198q40 2 66.5 -17.5t40.5 -47.5t18 -59.5t1 -53.5q38 6 74.5 38t68 76t56 93t39.5 88l31 -4q-18 -45 -44.5 -99t-60.5 -102t-75.5 -82t-90.5 -40q-3 -22 -9.5 -63.5t-19 -90.5t-32 -99.5t-48 -91t-66 -65t-86.5 -21.5q-37 3 -51.5 36t-12 81.5t20.5 105.5
t47.5 106.5t67.5 84.5t80 41q2 13 3.5 33t0 40t-7 37t-18.5 24.5t-34.5 2.5t-54.5 -29q-5 -4 -11.5 -2t-11 8t-6.5 16t2 22q21 13 49 33.5t54 45t45.5 51.5t22.5 54q3 25 -4 46t-22 34.5t-36.5 18.5t-47.5 -1q-23 -5 -45 -20t-40 -35t-32.5 -42.5t-22.5 -43.5l-30 6
q39 102 130 160q39 24 85.5 29t84 -8.5t59 -44.5t10.5 -79q-6 -24 -20.5 -47.5t-34 -45t-41.5 -41.5t-41 -36zM244 -19q-37 -9 -67.5 -41t-53 -74.5t-36.5 -90t-18 -86.5t2 -64.5t24 -24.5q24 1 44 25.5t36 61.5t28.5 81t21 86t13 76.5t6.5 50.5z" />
    <glyph glyph-name="braceleft" unicode="{" horiz-adv-x="462" 
d="M316 849q26 11 55.5 9t52.5 -9.5t34.5 -18t1.5 -16.5q-8 -3 -16 0.5t-19 8.5t-25 8t-34 -1q-37 -8 -52 -29t-18.5 -51t0.5 -67t6.5 -77t-1.5 -80t-23.5 -76.5t-59 -67.5t-107.5 -52q49 -21 67 -65.5t20 -99t-4.5 -112.5t-8 -105.5t10 -78.5t50.5 -32q6 -1 19 0t28 2
t30.5 1t27.5 -1q17 -2 19.5 -6.5t-8.5 -9.5q-12 -5 -31 -8.5t-41 -6t-45 -3t-43 -0.5q-42 0 -65 18t-33 47t-10.5 67t3 79.5t8.5 83.5t5.5 78.5t-7 65t-27.5 43.5q-8 6 -20.5 10.5t-25 9.5t-21.5 11t-9 14q-1 9 19.5 19t65.5 30q61 27 86.5 65.5t33 83t5.5 91.5t3.5 90
t26.5 79t76 59z" />
    <glyph glyph-name="bar" unicode="|" horiz-adv-x="288" 
d="M196 736q-1 -54 -2 -132t-2.5 -170.5t-3.5 -193.5t-4 -199.5t-4.5 -189t-4.5 -161.5q-1 -29 -15 -40.5t-30 -9.5t-28.5 16t-10.5 35q1 69 2.5 152t2.5 173.5t2.5 185t3 187t2.5 180t3 162.5q2 14 16 20.5t29.5 6.5t29 -6t14.5 -16z" />
    <glyph glyph-name="braceright" unicode="}" horiz-adv-x="472" 
d="M149 -186q-27 -11 -56.5 -9t-52.5 9.5t-34.5 18t-1.5 17.5q8 3 16.5 -1t19 -9t25 -8t34.5 1q37 8 52 29t18.5 51.5t-0.5 67.5t-6.5 76.5t1 80t23 77t59 67t107.5 51.5q-37 16 -56 45.5t-26 67t-5.5 80t5 84.5t7 81t0 69t-17 48t-42.5 19q-6 0 -18.5 -1t-28 -2t-31 -1.5
t-27.5 1.5q-17 2 -19.5 7t8.5 10q12 5 31 8.5t41 5.5t45 2.5t43 0.5q42 0 65 -18t33 -47t10.5 -67t-3 -79.5t-8.5 -83t-5 -78t7 -65t28 -43.5q7 -6 20 -11t25 -10t21 -11t9 -14q1 -8 -19.5 -18.5t-65.5 -30.5q-61 -27 -86.5 -65.5t-33 -83t-5.5 -91.5t-3 -90t-26.5 -79
t-75.5 -59z" />
    <glyph glyph-name="asciitilde" unicode="~" horiz-adv-x="539" 
d="M521 197q-26 37 -61.5 50.5t-75.5 12t-82.5 -11.5t-82 -20t-75 -14t-60.5 7q-16 7 -25.5 23.5t-14.5 35t-7 36t-2 26.5q18 -35 50 -49.5t70 -16.5t79 5.5t76.5 17.5t63 19t38.5 10q37 2 59 -16t33.5 -42t14.5 -46t2 -27z" />
  </font>
</defs>
</svg>
